<svg xmlns="http://www.w3.org/2000/svg" viewBox="0 0 4773.29 1483.97"><defs><style>.cls-1{fill:#fff;}</style></defs><g id="Capa_2" data-name="Capa 2"><g id="Capa_1-2" data-name="Capa 1"><path class="cls-1" d="M1713.14,122.44V4.88h32q17.57,0,29.76,5.28a53.33,53.33,0,0,1,19.75,14.15,56.5,56.5,0,0,1,11,19.43,68.85,68.85,0,0,1,3.42,21.3A59,59,0,0,1,1804.44,89a54,54,0,0,1-12.68,18,56.58,56.58,0,0,1-18.54,11.46,61.88,61.88,0,0,1-22.2,4Zm15.77-15.12h19a52.67,52.67,0,0,0,17.8-2.93,42.22,42.22,0,0,0,14.31-8.45,38,38,0,0,0,9.51-13.58A46.86,46.86,0,0,0,1793,63.9,47.15,47.15,0,0,0,1789.4,45a39.23,39.23,0,0,0-9.76-13.74,42.72,42.72,0,0,0-14-8.37A47,47,0,0,0,1749.4,20h-20.49Z"/><path class="cls-1" d="M1817.53,122.44,1868.75,0h1l51.38,122.44h-18l-38.37-97.72,11.22-7.32-42.77,105Zm30.08-44.55h43.74l5.21,13.66h-53.5Z"/><path class="cls-1" d="M1925.34,4.88h78.21V20H1972V122.44h-15.77V20h-30.89Z"/><path class="cls-1" d="M2007.78,122.44,2059,0h1l51.39,122.44h-18.05l-38.38-97.72,11.22-7.32-42.76,105Zm30.08-44.55h43.74l5.2,13.66h-53.49Z"/><path class="cls-1" d="M2184.85,4.88h76.43V20h-60.65V55.77h54.14V71.06h-54.14v36.26h62.92v15.12h-78.7Z"/><path class="cls-1" d="M2377.21,113.66a68.75,68.75,0,0,1-8,4.39,58.57,58.57,0,0,1-11.79,4.07,65.76,65.76,0,0,1-39.35-3.25,55.35,55.35,0,0,1-30.49-31.63,63.07,63.07,0,0,1-4.07-22.69,67.86,67.86,0,0,1,4.23-24.3,56.61,56.61,0,0,1,12.11-19.35,55.9,55.9,0,0,1,18.54-12.77,58.85,58.85,0,0,1,23.34-4.55A61.13,61.13,0,0,1,2361,6.42a72.77,72.77,0,0,1,14.8,6.59l-6.34,15a63.13,63.13,0,0,0-11.87-6.34,40.9,40.9,0,0,0-31.55.48,42.15,42.15,0,0,0-13.49,9.6A45.78,45.78,0,0,0,2303.31,46,46.32,46.32,0,0,0,2300,63.74a51,51,0,0,0,3,17.64,42.41,42.41,0,0,0,8.62,14.31,39.17,39.17,0,0,0,13.58,9.52,45.08,45.08,0,0,0,17.89,3.41,43.11,43.11,0,0,0,15.93-2.76,50.38,50.38,0,0,0,11.55-6.18Z"/><path class="cls-1" d="M2396.4,63.74A58.39,58.39,0,0,1,2401,40.65a61.5,61.5,0,0,1,32-32.36,59.54,59.54,0,0,1,46.42,0,62.09,62.09,0,0,1,32.36,32.36,58,58,0,0,1,4.71,23.25,58,58,0,0,1-4.71,23.26,60.72,60.72,0,0,1-32.2,32,58.74,58.74,0,0,1-23.25,4.63,59.36,59.36,0,0,1-23.33-4.55,59.21,59.21,0,0,1-36.67-55.45Zm16.26,0A45.24,45.24,0,0,0,2416,81.22a44.09,44.09,0,0,0,9.43,14.23,45.26,45.26,0,0,0,14,9.67,43.79,43.79,0,0,0,34.31,0,44,44,0,0,0,13.82-9.59,45.33,45.33,0,0,0,9.35-14.23,44.41,44.41,0,0,0,3.41-17.4,44.84,44.84,0,0,0-3.41-17.56A47.49,47.49,0,0,0,2487.54,32a43.37,43.37,0,0,0-48.46-9.67,43.64,43.64,0,0,0-23.17,24.14A46.6,46.6,0,0,0,2412.66,63.74Z"/><path class="cls-1" d="M2644.86,126.18,2554,34l4.56,1.14.32,87.32h-15.77V1.3h.81l89.76,92.52-3.58-.81-.32-88.13h15.77v121.3Z"/><path class="cls-1" d="M2671.85,63.74a58.56,58.56,0,0,1,4.63-23.09,61.5,61.5,0,0,1,32-32.36,59.54,59.54,0,0,1,46.42,0,62.09,62.09,0,0,1,32.36,32.36A58,58,0,0,1,2792,63.9a58,58,0,0,1-4.72,23.26,60.72,60.72,0,0,1-32.2,32,58.74,58.74,0,0,1-23.25,4.63,59.33,59.33,0,0,1-60-60Zm16.26,0a45.24,45.24,0,0,0,3.33,17.48,44.12,44.12,0,0,0,9.44,14.23,45.1,45.1,0,0,0,14,9.67,43.79,43.79,0,0,0,34.31,0A43.86,43.86,0,0,0,2763,95.53a45.33,45.33,0,0,0,9.35-14.23,44.41,44.41,0,0,0,3.42-17.4,44.85,44.85,0,0,0-3.42-17.56A47.49,47.49,0,0,0,2763,32a43.37,43.37,0,0,0-48.46-9.67,43.64,43.64,0,0,0-23.17,24.14A46.6,46.6,0,0,0,2688.11,63.74Z"/><path class="cls-1" d="M2818.52,122.44V1.14h.16l61.63,87.64-6.67-1.46,61.63-86.18h.16v121.3h-15.77V36.91l1.14,8-44.23,62.77h-.33l-45-62.77,2.6-7.32v84.88Z"/><path class="cls-1" d="M3000.47,83.25,2956.89,4.88h19.36l35,64.88-4.88.32L3041,4.88h19.19l-43.9,78.37v39.19h-15.78Z"/><path class="cls-1" d="M200.54,331.49H229.4v5.58H217.75v37.8h-5.81v-37.8h-11.4Z"/><path class="cls-1" d="M273,331.49v43.38h-5.82v-19H244.45v19h-5.82V331.49h5.82v18.78h22.68V331.49Z"/><path class="cls-1" d="M285.43,331.49h28.2v5.58H291.25v13.2h20v5.64h-20v13.38h23.22v5.58h-29Z"/><path class="cls-1" d="M339.19,374.87l18.9-45.18h.36l19,45.18h-6.66l-14.16-36.06,4.14-2.7L345,374.87Zm11.1-16.44h16.14l1.92,5H348.61Z"/><path class="cls-1" d="M397.09,331.49a20.37,20.37,0,0,1,6.09.87,14.15,14.15,0,0,1,4.86,2.58,11.91,11.91,0,0,1,3.24,4.23,13.53,13.53,0,0,1,1.17,5.76,17.19,17.19,0,0,1-.75,5,12.43,12.43,0,0,1-2.46,4.47,12.3,12.3,0,0,1-4.5,3.24,17.19,17.19,0,0,1-6.93,1.23h-6.42v16h-5.82V331.49Zm.6,21.78a10.35,10.35,0,0,0,4.29-.78,7,7,0,0,0,2.67-2,8,8,0,0,0,1.38-2.61,9.25,9.25,0,0,0,.42-2.7,8.68,8.68,0,0,0-.45-2.7,8.21,8.21,0,0,0-1.44-2.61,7.47,7.47,0,0,0-2.58-2,8.73,8.73,0,0,0-3.87-.78h-6.72v16.2Zm7.14,3.36,11.34,18.24h-6.72l-11.58-18.06Z"/><path class="cls-1" d="M421.27,331.49h28.86v5.58H438.49v37.8h-5.82v-37.8h-11.4Z"/><path class="cls-1" d="M459.37,331.49h5.82v43.38h-5.82Z"/><path class="cls-1" d="M509.53,371.63a25.44,25.44,0,0,1-2.94,1.62,21.65,21.65,0,0,1-4.35,1.5,24.21,24.21,0,0,1-14.52-1.2,20.41,20.41,0,0,1-11.25-11.67,23.27,23.27,0,0,1-1.5-8.37,25.08,25.08,0,0,1,1.56-9A20.87,20.87,0,0,1,481,337.4a20.61,20.61,0,0,1,6.84-4.71,21.68,21.68,0,0,1,8.61-1.68,22.49,22.49,0,0,1,7.08,1.05,26.75,26.75,0,0,1,5.46,2.43L506.65,340a23.41,23.41,0,0,0-4.38-2.34,15.08,15.08,0,0,0-11.64.18,15.53,15.53,0,0,0-5,3.54A16.9,16.9,0,0,0,481,353.21a18.74,18.74,0,0,0,1.11,6.51,15.66,15.66,0,0,0,3.18,5.28,14.44,14.44,0,0,0,5,3.51,16.6,16.6,0,0,0,6.6,1.26,15.9,15.9,0,0,0,5.88-1,18.33,18.33,0,0,0,4.26-2.28Z"/><path class="cls-1" d="M519.31,331.49h5.82v37.8h22v5.58H519.31Z"/><path class="cls-1" d="M556.63,331.49h28.2v5.58H562.45v13.2h20v5.64h-20v13.38h23.22v5.58h-29Z"/><path class="cls-1" d="M253.4,443.15a11,11,0,0,1-2.52,1.53,29.56,29.56,0,0,1-3.57,1.35,34.07,34.07,0,0,1-4,1,22.55,22.55,0,0,1-3.9.36,26,26,0,0,1-9.42-1.62,21,21,0,0,1-7.17-4.5,19.5,19.5,0,0,1-4.54-6.78,22.4,22.4,0,0,1-1.55-8.4,25.5,25.5,0,0,1,1.76-9.78,21.22,21.22,0,0,1,4.84-7.23,20.49,20.49,0,0,1,7.11-4.5,23.78,23.78,0,0,1,8.49-1.53,27.25,27.25,0,0,1,7.08.87,23,23,0,0,1,5.69,2.31l-1.92,5.34a23.57,23.57,0,0,0-3-1.29,27.87,27.87,0,0,0-3.63-1,16.93,16.93,0,0,0-3.43-.39,19.57,19.57,0,0,0-7,1.17,15.35,15.35,0,0,0-5.34,3.36,14.67,14.67,0,0,0-3.45,5.28,18.84,18.84,0,0,0-1.2,6.93,16.87,16.87,0,0,0,1.2,6.45,14.22,14.22,0,0,0,3.45,5.1,15.49,15.49,0,0,0,5.31,3.27,19.47,19.47,0,0,0,6.84,1.14,22.58,22.58,0,0,0,4.32-.42,11.43,11.43,0,0,0,3.66-1.32v-8.52h-8.58v-5.64H253.4Z"/><path class="cls-1" d="M264.5,403.49h28.2v5.58H270.31v13.2h20v5.64h-20v13.38h23.23v5.58h-29Z"/><path class="cls-1" d="M341.17,448.25l-33.54-34,1.68.42.12,32.22h-5.82v-44.7h.3L337,436.31l-1.32-.3-.12-32.52h5.82v44.76Z"/><path class="cls-1" d="M353.83,403.49H382v5.58H359.65v13.2h20v5.64h-20v13.38h23.22v5.58h-29Z"/><path class="cls-1" d="M404.47,403.49a20.37,20.37,0,0,1,6.09.87,14.15,14.15,0,0,1,4.86,2.58,11.91,11.91,0,0,1,3.24,4.23,13.53,13.53,0,0,1,1.17,5.76,17.19,17.19,0,0,1-.75,5,12.43,12.43,0,0,1-2.46,4.47,12.3,12.3,0,0,1-4.5,3.24,17.19,17.19,0,0,1-6.93,1.23h-6.42v16H393V403.49Zm.6,21.78a10.35,10.35,0,0,0,4.29-.78,7,7,0,0,0,2.67-2,8,8,0,0,0,1.38-2.61,9.25,9.25,0,0,0,.42-2.7,8.68,8.68,0,0,0-.45-2.7,8.21,8.21,0,0,0-1.44-2.61,7.47,7.47,0,0,0-2.58-2,8.73,8.73,0,0,0-3.87-.78h-6.72v16.2Zm7.14,3.36,11.34,18.24h-6.72l-11.58-18.06Z"/><path class="cls-1" d="M428.17,446.87l18.9-45.18h.36l19,45.18h-6.66l-14.16-36.06,4.14-2.7-15.78,38.76Zm11.1-16.44h16.14l1.92,5H437.59Z"/><path class="cls-1" d="M468,403.49h28.86v5.58H485.17v37.8h-5.82v-37.8H468Z"/><path class="cls-1" d="M506.05,403.49h28.2v5.58H511.87v13.2h20v5.64h-20v13.38h23.22v5.58h-29Z"/><path class="cls-1" d="M567.61,411.23a31.59,31.59,0,0,0-4.86-2,17,17,0,0,0-5.16-.84A8.76,8.76,0,0,0,552,410a5.21,5.21,0,0,0-2.07,4.32,4.8,4.8,0,0,0,1.35,3.45,11.82,11.82,0,0,0,3.48,2.43q2.13,1,4.53,1.92a37.56,37.56,0,0,1,4,1.71,15.84,15.84,0,0,1,3.57,2.43,10.37,10.37,0,0,1,2.52,3.54,12.73,12.73,0,0,1,.93,5.16,11.71,11.71,0,0,1-6.6,10.74,16.61,16.61,0,0,1-7.62,1.62,23.06,23.06,0,0,1-5.43-.63,23.74,23.74,0,0,1-4.83-1.71,35.87,35.87,0,0,1-4-2.22l2.58-4.56a25.23,25.23,0,0,0,3.3,1.95,20.33,20.33,0,0,0,3.9,1.47,15.45,15.45,0,0,0,4,.54,11.85,11.85,0,0,0,4.08-.72,7.68,7.68,0,0,0,3.3-2.28,6.19,6.19,0,0,0,1.32-4.14,5.77,5.77,0,0,0-1.17-3.66,9.92,9.92,0,0,0-3.06-2.55A31.16,31.16,0,0,0,556,427a43.25,43.25,0,0,1-4.17-1.68A20.6,20.6,0,0,1,548,423a10.75,10.75,0,0,1-2.88-3.33,9.68,9.68,0,0,1-1.11-4.8,10.74,10.74,0,0,1,1.65-6,11.49,11.49,0,0,1,4.53-4,15.44,15.44,0,0,1,6.6-1.59,24.49,24.49,0,0,1,7.41,1,28.54,28.54,0,0,1,5.67,2.46Z"/><path class="cls-1" d="M249.43,475.49a20.32,20.32,0,0,1,6.09.87,14.15,14.15,0,0,1,4.86,2.58,12.05,12.05,0,0,1,3.25,4.23,13.53,13.53,0,0,1,1.16,5.76,17.19,17.19,0,0,1-.75,5,12,12,0,0,1-7,7.71,17.23,17.23,0,0,1-6.93,1.23h-6.43v16h-5.81V475.49Zm.61,21.78a10.41,10.41,0,0,0,4.29-.78,7.13,7.13,0,0,0,2.67-2,8.43,8.43,0,0,0,1.38-2.61,9.57,9.57,0,0,0,.41-2.7,8.68,8.68,0,0,0-.45-2.7,8.38,8.38,0,0,0-1.43-2.61,7.57,7.57,0,0,0-2.58-2,8.79,8.79,0,0,0-3.87-.78h-6.73v16.2Zm7.13,3.36,11.34,18.24h-6.72l-11.58-18.06Z"/><path class="cls-1" d="M273.79,497.21a21.72,21.72,0,0,1,1.71-8.52,22.73,22.73,0,0,1,4.77-7.11,22.41,22.41,0,0,1,7.06-4.83,21.95,21.95,0,0,1,17.13,0,22.81,22.81,0,0,1,7.1,4.83,22.57,22.57,0,0,1,4.83,7.11,22,22,0,0,1,0,17.16,22.39,22.39,0,0,1-11.88,11.79,21.65,21.65,0,0,1-8.58,1.71A22,22,0,0,1,280.27,513a21.69,21.69,0,0,1-6.48-15.75Zm6,0a16.69,16.69,0,0,0,1.23,6.45,16.26,16.26,0,0,0,3.48,5.25,16.62,16.62,0,0,0,5.17,3.57,16.18,16.18,0,0,0,12.66,0,16.29,16.29,0,0,0,5.09-3.54,16.77,16.77,0,0,0,3.46-5.25,16.58,16.58,0,0,0,1.25-6.42,16.78,16.78,0,0,0-1.25-6.48,17.52,17.52,0,0,0-3.46-5.31,15.49,15.49,0,0,0-5.16-3.6,16.15,16.15,0,0,0-12.72,0,16.2,16.2,0,0,0-5.16,3.6,16,16,0,0,0-3.38,5.31A17,17,0,0,0,279.79,497.21Z"/><path class="cls-1" d="M336,504.41l-16.08-28.92H327l12.9,23.94-1.8.12,12.78-24.06H358l-16.2,28.92v14.46H336Z"/><path class="cls-1" d="M355.76,518.87l18.9-45.18H375l19,45.18h-6.66l-14.16-36.06,4.14-2.7-15.78,38.76Zm11.1-16.44H383l1.92,5H365.18Z"/><path class="cls-1" d="M402.13,475.49H408v37.8h22v5.58H402.13Z"/><path class="cls-1" d="M431.17,475.49H460v5.58H448.39v37.8h-5.81v-37.8H431.17Z"/><path class="cls-1" d="M469.27,475.49h5.82v43.38h-5.82Z"/><path class="cls-1" d="M487.57,475.49h28.2v5.58H493.39v13.2h20v5.64h-20v13.38h23.22v5.58h-29Z"/><path class="cls-1" d="M549.13,483.23a31.59,31.59,0,0,0-4.86-2,17,17,0,0,0-5.16-.84,8.76,8.76,0,0,0-5.55,1.62,5.21,5.21,0,0,0-2.07,4.32,4.8,4.8,0,0,0,1.35,3.45,11.82,11.82,0,0,0,3.48,2.43q2.13,1,4.53,1.92a37.56,37.56,0,0,1,4,1.71,15.84,15.84,0,0,1,3.57,2.43,10.37,10.37,0,0,1,2.52,3.54,12.73,12.73,0,0,1,.93,5.16,11.71,11.71,0,0,1-6.6,10.74,16.61,16.61,0,0,1-7.62,1.62,23.06,23.06,0,0,1-5.43-.63,23.74,23.74,0,0,1-4.83-1.71,35.87,35.87,0,0,1-4-2.22l2.58-4.56a25.23,25.23,0,0,0,3.3,1.95,20.33,20.33,0,0,0,3.9,1.47,15.45,15.45,0,0,0,4,.54,11.85,11.85,0,0,0,4.08-.72,7.68,7.68,0,0,0,3.3-2.28,6.19,6.19,0,0,0,1.32-4.14,5.77,5.77,0,0,0-1.17-3.66,9.92,9.92,0,0,0-3.06-2.55,31.16,31.16,0,0,0-4.11-1.89,43.25,43.25,0,0,1-4.17-1.68,20.6,20.6,0,0,1-3.84-2.31,10.75,10.75,0,0,1-2.88-3.33,9.68,9.68,0,0,1-1.11-4.8,10.74,10.74,0,0,1,1.65-6,11.49,11.49,0,0,1,4.53-4,15.44,15.44,0,0,1,6.6-1.59,24.49,24.49,0,0,1,7.41,1,28.54,28.54,0,0,1,5.67,2.46Z"/><path class="cls-1" d="M1385.37,331.49a20.37,20.37,0,0,1,6.09.87,14.15,14.15,0,0,1,4.86,2.58,11.91,11.91,0,0,1,3.24,4.23,13.53,13.53,0,0,1,1.17,5.76,17.19,17.19,0,0,1-.75,5,12.43,12.43,0,0,1-2.46,4.47,12.3,12.3,0,0,1-4.5,3.24,17.19,17.19,0,0,1-6.93,1.23h-6.42v16h-5.82V331.49Zm.6,21.78a10.35,10.35,0,0,0,4.29-.78,7,7,0,0,0,2.67-2,8,8,0,0,0,1.38-2.61,9.25,9.25,0,0,0,.42-2.7,8.68,8.68,0,0,0-.45-2.7,8.21,8.21,0,0,0-1.44-2.61,7.47,7.47,0,0,0-2.58-2,8.73,8.73,0,0,0-3.87-.78h-6.72v16.2Zm7.14,3.36,11.34,18.24h-6.72l-11.58-18.06Z"/><path class="cls-1" d="M1409.73,353.21a21.54,21.54,0,0,1,1.71-8.52,22.69,22.69,0,0,1,11.82-11.94,21.95,21.95,0,0,1,17.13,0,22.91,22.91,0,0,1,11.94,11.94,22,22,0,0,1,0,17.16,22.39,22.39,0,0,1-11.88,11.79,21.69,21.69,0,0,1-8.58,1.71,21.9,21.9,0,0,1-22.14-22.14Zm6,0a16.69,16.69,0,0,0,1.23,6.45,16.26,16.26,0,0,0,3.48,5.25,16.7,16.7,0,0,0,5.16,3.57,16.18,16.18,0,0,0,12.66,0,16.22,16.22,0,0,0,5.1-3.54,16.74,16.74,0,0,0,3.45-5.25,16.41,16.41,0,0,0,1.26-6.42,16.6,16.6,0,0,0-1.26-6.48,17.49,17.49,0,0,0-3.45-5.31,16,16,0,0,0-17.88-3.57,16.11,16.11,0,0,0-8.55,8.91A17.2,17.2,0,0,0,1415.73,353.21Z"/><path class="cls-1" d="M1471.89,360.41l-16.08-28.92H1463l12.9,23.94-1.8.12,12.78-24.06h7.08l-16.2,28.92v14.46h-5.82Z"/><path class="cls-1" d="M1491.69,374.87l18.9-45.18h.36l19,45.18h-6.66l-14.16-36.06,4.14-2.7-15.78,38.76Zm11.1-16.44h16.14l1.92,5h-19.74Z"/><path class="cls-1" d="M1538.07,331.49h5.82v37.8h22v5.58h-27.84Z"/><path class="cls-1" d="M1567.11,331.49H1596v5.58h-11.64v37.8h-5.82v-37.8h-11.4Z"/><path class="cls-1" d="M1605.21,331.49H1611v43.38h-5.82Z"/><path class="cls-1" d="M1623.51,331.49h28.2v5.58h-22.38v13.2h20v5.64h-20v13.38h23.22v5.58h-29Z"/><path class="cls-1" d="M1685.07,339.23a31.59,31.59,0,0,0-4.86-2,17,17,0,0,0-5.16-.84,8.76,8.76,0,0,0-5.55,1.62,5.21,5.21,0,0,0-2.07,4.32,4.8,4.8,0,0,0,1.35,3.45,11.82,11.82,0,0,0,3.48,2.43q2.13,1,4.53,1.92a37.56,37.56,0,0,1,4,1.71,15.84,15.84,0,0,1,3.57,2.43,10.37,10.37,0,0,1,2.52,3.54,12.73,12.73,0,0,1,.93,5.16,11.71,11.71,0,0,1-6.6,10.74,16.61,16.61,0,0,1-7.62,1.62,23.06,23.06,0,0,1-5.43-.63,23.74,23.74,0,0,1-4.83-1.71,35.87,35.87,0,0,1-4-2.22l2.58-4.56a25.23,25.23,0,0,0,3.3,1.95,20.33,20.33,0,0,0,3.9,1.47,15.45,15.45,0,0,0,4,.54,11.85,11.85,0,0,0,4.08-.72,7.68,7.68,0,0,0,3.3-2.28,6.19,6.19,0,0,0,1.32-4.14,5.77,5.77,0,0,0-1.17-3.66,9.92,9.92,0,0,0-3.06-2.55,31.16,31.16,0,0,0-4.11-1.89,43.25,43.25,0,0,1-4.17-1.68,20.6,20.6,0,0,1-3.84-2.31,10.75,10.75,0,0,1-2.88-3.33,9.68,9.68,0,0,1-1.11-4.8,10.74,10.74,0,0,1,1.65-6,11.49,11.49,0,0,1,4.53-4,15.44,15.44,0,0,1,6.6-1.59,24.49,24.49,0,0,1,7.41,1,28.54,28.54,0,0,1,5.67,2.46Z"/><path class="cls-1" d="M1712.19,374.87l18.9-45.18h.36l19,45.18h-6.66l-14.16-36.06,4.14-2.7L1718,374.87Zm11.1-16.44h16.14l1.92,5h-19.74Z"/><path class="cls-1" d="M1770.09,331.49a20.37,20.37,0,0,1,6.09.87,14.15,14.15,0,0,1,4.86,2.58,11.91,11.91,0,0,1,3.24,4.23,13.53,13.53,0,0,1,1.17,5.76,17.19,17.19,0,0,1-.75,5,12.43,12.43,0,0,1-2.46,4.47,12.3,12.3,0,0,1-4.5,3.24,17.19,17.19,0,0,1-6.93,1.23h-6.42v16h-5.82V331.49Zm.6,21.78a10.35,10.35,0,0,0,4.29-.78,7,7,0,0,0,2.67-2,8,8,0,0,0,1.38-2.61,9.25,9.25,0,0,0,.42-2.7,8.68,8.68,0,0,0-.45-2.7,8.21,8.21,0,0,0-1.44-2.61,7.47,7.47,0,0,0-2.58-2,8.73,8.73,0,0,0-3.87-.78h-6.72v16.2Zm7.14,3.36,11.34,18.24h-6.72l-11.58-18.06Z"/><path class="cls-1" d="M1798.11,331.49h28.2v5.58h-22.38v13.2h20v5.64h-20v13.38h23.22v5.58h-29Z"/><path class="cls-1" d="M1368.81,411.23a31.59,31.59,0,0,0-4.86-2,17,17,0,0,0-5.16-.84,8.76,8.76,0,0,0-5.55,1.62,5.21,5.21,0,0,0-2.07,4.32,4.8,4.8,0,0,0,1.35,3.45,11.82,11.82,0,0,0,3.48,2.43q2.13,1,4.53,1.92a37.56,37.56,0,0,1,4,1.71,15.84,15.84,0,0,1,3.57,2.43,10.37,10.37,0,0,1,2.52,3.54,12.73,12.73,0,0,1,.93,5.16,11.71,11.71,0,0,1-6.6,10.74,16.61,16.61,0,0,1-7.62,1.62,23.06,23.06,0,0,1-5.43-.63A23.74,23.74,0,0,1,1347,445a35.87,35.87,0,0,1-4-2.22l2.58-4.56a25.23,25.23,0,0,0,3.3,1.95,20.33,20.33,0,0,0,3.9,1.47,15.45,15.45,0,0,0,4,.54,11.85,11.85,0,0,0,4.08-.72,7.68,7.68,0,0,0,3.3-2.28,6.19,6.19,0,0,0,1.32-4.14,5.77,5.77,0,0,0-1.17-3.66,9.92,9.92,0,0,0-3.06-2.55,31.16,31.16,0,0,0-4.11-1.89,43.25,43.25,0,0,1-4.17-1.68,20.6,20.6,0,0,1-3.84-2.31,10.75,10.75,0,0,1-2.88-3.33,9.68,9.68,0,0,1-1.11-4.8,10.74,10.74,0,0,1,1.65-6,11.49,11.49,0,0,1,4.53-4,15.44,15.44,0,0,1,6.6-1.59,24.49,24.49,0,0,1,7.41,1,28.54,28.54,0,0,1,5.67,2.46Z"/><path class="cls-1" d="M1381.29,403.49h28.2v5.58h-22.38v13.2h20v5.64h-20v13.38h23.22v5.58h-29Z"/><path class="cls-1" d="M1458,448.25l-33.54-34,1.68.42.12,32.22h-5.82v-44.7h.3l33.12,34.14-1.32-.3-.12-32.52h5.82v44.76Z"/><path class="cls-1" d="M1467.39,403.49h28.86v5.58h-11.64v37.8h-5.82v-37.8h-11.4Z"/><path class="cls-1" d="M1521.21,403.49h28.86v5.58h-11.64v37.8h-5.82v-37.8h-11.4Z"/><path class="cls-1" d="M1554.75,425.21a21.54,21.54,0,0,1,1.71-8.52,22.69,22.69,0,0,1,11.82-11.94,21.95,21.95,0,0,1,17.13,0,22.91,22.91,0,0,1,11.94,11.94,22,22,0,0,1,0,17.16,22.39,22.39,0,0,1-11.88,11.79,21.69,21.69,0,0,1-8.58,1.71,21.9,21.9,0,0,1-22.14-22.14Zm6,0a16.69,16.69,0,0,0,1.23,6.45,16.26,16.26,0,0,0,3.48,5.25,16.7,16.7,0,0,0,5.16,3.57,16.18,16.18,0,0,0,12.66,0,16.22,16.22,0,0,0,5.1-3.54,16.74,16.74,0,0,0,3.45-5.25,16.41,16.41,0,0,0,1.26-6.42,16.6,16.6,0,0,0-1.26-6.48,17.49,17.49,0,0,0-3.45-5.31,16,16,0,0,0-17.88-3.57,16.11,16.11,0,0,0-8.55,8.91A17.2,17.2,0,0,0,1560.75,425.21Z"/><path class="cls-1" d="M1623.51,446.87l18.9-45.18h.36l19,45.18h-6.66l-14.16-36.06,4.14-2.7-15.78,38.76Zm11.1-16.44h16.14l1.92,5h-19.74Z"/><path class="cls-1" d="M1700.43,403.49a18.81,18.81,0,0,1,8.1,1.59,11.85,11.85,0,0,1,5.19,4.59,13.68,13.68,0,0,1,1.83,7.26,16.87,16.87,0,0,1-.78,5.07,12.77,12.77,0,0,1-2.49,4.5,12.35,12.35,0,0,1-4.47,3.24,16.46,16.46,0,0,1-6.72,1.23h-6.42v15.9h-5.82V403.49Zm.6,21.78a9.81,9.81,0,0,0,4.26-.81,6.87,6.87,0,0,0,2.64-2.13,9,9,0,0,0,1.38-2.7,8.89,8.89,0,0,0,.42-2.58,9.55,9.55,0,0,0-.42-2.73,7.1,7.1,0,0,0-1.41-2.58,7.52,7.52,0,0,0-2.58-1.92,9.18,9.18,0,0,0-3.93-.75h-6.72v16.2Z"/><path class="cls-1" d="M1721.85,425.21a21.54,21.54,0,0,1,1.71-8.52,22.69,22.69,0,0,1,11.82-11.94,21.95,21.95,0,0,1,17.13,0,22.91,22.91,0,0,1,11.94,11.94,22,22,0,0,1,0,17.16,22.39,22.39,0,0,1-11.88,11.79,21.69,21.69,0,0,1-8.58,1.71,21.9,21.9,0,0,1-22.14-22.14Zm6,0a16.69,16.69,0,0,0,1.23,6.45,16.26,16.26,0,0,0,3.48,5.25,16.7,16.7,0,0,0,5.16,3.57,16.18,16.18,0,0,0,12.66,0,16.22,16.22,0,0,0,5.1-3.54,16.74,16.74,0,0,0,3.45-5.25,16.41,16.41,0,0,0,1.26-6.42,16.6,16.6,0,0,0-1.26-6.48,17.49,17.49,0,0,0-3.45-5.31,16,16,0,0,0-17.88-3.57,16.11,16.11,0,0,0-8.55,8.91A17.2,17.2,0,0,0,1727.85,425.21Z"/><path class="cls-1" d="M1773.27,425.21a21.54,21.54,0,0,1,1.71-8.52,22.69,22.69,0,0,1,11.82-11.94,21.95,21.95,0,0,1,17.13,0,22.91,22.91,0,0,1,11.94,11.94,22,22,0,0,1,0,17.16A22.39,22.39,0,0,1,1804,445.64a21.69,21.69,0,0,1-8.58,1.71,21.9,21.9,0,0,1-22.14-22.14Zm6,0a16.69,16.69,0,0,0,1.23,6.45,16.26,16.26,0,0,0,3.48,5.25,16.7,16.7,0,0,0,5.16,3.57,16.18,16.18,0,0,0,12.66,0,16.22,16.22,0,0,0,5.1-3.54,16.74,16.74,0,0,0,3.45-5.25,16.41,16.41,0,0,0,1.26-6.42,16.6,16.6,0,0,0-1.26-6.48,17.49,17.49,0,0,0-3.45-5.31,16,16,0,0,0-17.88-3.57,16.11,16.11,0,0,0-8.55,8.91A17.2,17.2,0,0,0,1779.27,425.21Z"/><path class="cls-1" d="M1827.39,403.49h5.82v37.8h22v5.58h-27.84Z"/><path class="cls-1" d="M1415.07,475.49h25.74v5.58h-19.92v13.8h17.46v5.58h-17.46v18.42h-5.82Z"/><path class="cls-1" d="M1446.81,497.21a21.54,21.54,0,0,1,1.71-8.52,22.69,22.69,0,0,1,11.82-11.94,21.95,21.95,0,0,1,17.13,0,22.91,22.91,0,0,1,11.94,11.94,22,22,0,0,1,0,17.16,22.39,22.39,0,0,1-11.88,11.79,21.69,21.69,0,0,1-8.58,1.71,21.9,21.9,0,0,1-22.14-22.14Zm6,0a16.69,16.69,0,0,0,1.23,6.45,16.26,16.26,0,0,0,3.48,5.25,16.7,16.7,0,0,0,5.16,3.57,16.18,16.18,0,0,0,12.66,0,16.22,16.22,0,0,0,5.1-3.54,16.74,16.74,0,0,0,3.45-5.25,16.41,16.41,0,0,0,1.26-6.42,16.6,16.6,0,0,0-1.26-6.48,17.49,17.49,0,0,0-3.45-5.31,16,16,0,0,0-17.88-3.57,16.11,16.11,0,0,0-8.55,8.91A17.2,17.2,0,0,0,1452.81,497.21Z"/><path class="cls-1" d="M1512.45,475.49a20.37,20.37,0,0,1,6.09.87,14.15,14.15,0,0,1,4.86,2.58,11.91,11.91,0,0,1,3.24,4.23,13.53,13.53,0,0,1,1.17,5.76,17.19,17.19,0,0,1-.75,5,12.43,12.43,0,0,1-2.46,4.47,12.3,12.3,0,0,1-4.5,3.24,17.19,17.19,0,0,1-6.93,1.23h-6.42v16h-5.82V475.49Zm.6,21.78a10.35,10.35,0,0,0,4.29-.78,7,7,0,0,0,2.67-2,8,8,0,0,0,1.38-2.61,9.25,9.25,0,0,0,.42-2.7,8.68,8.68,0,0,0-.45-2.7,8.21,8.21,0,0,0-1.44-2.61,7.47,7.47,0,0,0-2.58-2,8.73,8.73,0,0,0-3.87-.78h-6.72v16.2Zm7.14,3.36,11.34,18.24h-6.72l-11.58-18.06Z"/><path class="cls-1" d="M1559.43,475.49h25.74v5.58h-19.92v13.8h17.46v5.58h-17.46v18.42h-5.82Z"/><path class="cls-1" d="M1600,503.51a9.87,9.87,0,0,0,1.41,5.25,10.13,10.13,0,0,0,3.78,3.63,10.61,10.61,0,0,0,5.25,1.32,11.14,11.14,0,0,0,5.46-1.32,9.63,9.63,0,0,0,3.75-3.63,10.21,10.21,0,0,0,1.35-5.25v-28h5.76v28.2a15.58,15.58,0,0,1-2.16,8.28,14.6,14.6,0,0,1-5.88,5.46,18.68,18.68,0,0,1-16.5,0,14.6,14.6,0,0,1-5.88-5.46,15.58,15.58,0,0,1-2.16-8.28v-28.2H1600Z"/><path class="cls-1" d="M1635.39,475.49h28.86v5.58h-11.64v37.8h-5.82v-37.8h-11.4Z"/><path class="cls-1" d="M1678.71,503.51a9.87,9.87,0,0,0,1.41,5.25,10.13,10.13,0,0,0,3.78,3.63,10.61,10.61,0,0,0,5.25,1.32,11.14,11.14,0,0,0,5.46-1.32,9.63,9.63,0,0,0,3.75-3.63,10.21,10.21,0,0,0,1.35-5.25v-28h5.76v28.2a15.58,15.58,0,0,1-2.16,8.28,14.6,14.6,0,0,1-5.88,5.46,18.68,18.68,0,0,1-16.5,0,14.6,14.6,0,0,1-5.88-5.46,15.58,15.58,0,0,1-2.16-8.28v-28.2h5.82Z"/><path class="cls-1" d="M1728.87,475.49a20.37,20.37,0,0,1,6.09.87,14.15,14.15,0,0,1,4.86,2.58,11.91,11.91,0,0,1,3.24,4.23,13.53,13.53,0,0,1,1.17,5.76,17.19,17.19,0,0,1-.75,5,12.43,12.43,0,0,1-2.46,4.47,12.3,12.3,0,0,1-4.5,3.24,17.19,17.19,0,0,1-6.93,1.23h-6.42v16h-5.82V475.49Zm.6,21.78a10.35,10.35,0,0,0,4.29-.78,7,7,0,0,0,2.67-2,8,8,0,0,0,1.38-2.61,9.25,9.25,0,0,0,.42-2.7,8.68,8.68,0,0,0-.45-2.7,8.21,8.21,0,0,0-1.44-2.61,7.47,7.47,0,0,0-2.58-2,8.73,8.73,0,0,0-3.87-.78h-6.72v16.2Zm7.14,3.36L1748,518.87h-6.72l-11.58-18.06Z"/><path class="cls-1" d="M1756.89,475.49h28.2v5.58h-22.38v13.2h20v5.64h-20v13.38h23.22v5.58h-29Z"/><path class="cls-1" d="M1392.27,590.87V547.49h11.82a27.58,27.58,0,0,1,11,2,19.67,19.67,0,0,1,7.29,5.22,20.85,20.85,0,0,1,4.05,7.17,25.43,25.43,0,0,1,1.26,7.86,21.75,21.75,0,0,1-1.71,8.82,19.85,19.85,0,0,1-4.68,6.66,20.79,20.79,0,0,1-6.84,4.23,22.87,22.87,0,0,1-8.19,1.47Zm5.82-5.58h7a19.43,19.43,0,0,0,6.57-1.08,15.52,15.52,0,0,0,5.28-3.12,14.08,14.08,0,0,0,3.51-5,19.1,19.1,0,0,0-.06-13.8,14.42,14.42,0,0,0-3.6-5.07,15.77,15.77,0,0,0-5.16-3.09,17.38,17.38,0,0,0-6-1h-7.56Z"/><path class="cls-1" d="M1437.45,547.49h5.82v43.38h-5.82Z"/><path class="cls-1" d="M1478.19,555.23a31.59,31.59,0,0,0-4.86-2,17,17,0,0,0-5.16-.84,8.76,8.76,0,0,0-5.55,1.62,5.21,5.21,0,0,0-2.07,4.32,4.8,4.8,0,0,0,1.35,3.45,11.82,11.82,0,0,0,3.48,2.43q2.13,1,4.53,1.92a37.56,37.56,0,0,1,4,1.71,15.84,15.84,0,0,1,3.57,2.43,10.37,10.37,0,0,1,2.52,3.54,12.73,12.73,0,0,1,.93,5.16,11.71,11.71,0,0,1-6.6,10.74,16.61,16.61,0,0,1-7.62,1.62,23.06,23.06,0,0,1-5.43-.63,23.74,23.74,0,0,1-4.83-1.71,35.87,35.87,0,0,1-4-2.22l2.58-4.56a25.23,25.23,0,0,0,3.3,1.95,20.33,20.33,0,0,0,3.9,1.47,15.45,15.45,0,0,0,4,.54,11.85,11.85,0,0,0,4.08-.72,7.68,7.68,0,0,0,3.3-2.28,6.19,6.19,0,0,0,1.32-4.14,5.77,5.77,0,0,0-1.17-3.66,9.92,9.92,0,0,0-3.06-2.55,31.16,31.16,0,0,0-4.11-1.89,43.25,43.25,0,0,1-4.17-1.68,20.6,20.6,0,0,1-3.84-2.31,10.75,10.75,0,0,1-2.88-3.33,9.68,9.68,0,0,1-1.11-4.8,10.74,10.74,0,0,1,1.65-6,11.49,11.49,0,0,1,4.53-4,15.44,15.44,0,0,1,6.6-1.59,24.49,24.49,0,0,1,7.41,1,28.54,28.54,0,0,1,5.67,2.46Z"/><path class="cls-1" d="M1487.13,547.49H1516v5.58h-11.64v37.8h-5.82v-37.8h-11.4Z"/><path class="cls-1" d="M1536.75,547.49a20.37,20.37,0,0,1,6.09.87,14.15,14.15,0,0,1,4.86,2.58,11.91,11.91,0,0,1,3.24,4.23,13.53,13.53,0,0,1,1.17,5.76,17.19,17.19,0,0,1-.75,5,12.43,12.43,0,0,1-2.46,4.47,12.3,12.3,0,0,1-4.5,3.24,17.19,17.19,0,0,1-6.93,1.23h-6.42v16h-5.82V547.49Zm.6,21.78a10.35,10.35,0,0,0,4.29-.78,7,7,0,0,0,2.67-2,8,8,0,0,0,1.38-2.61,9.25,9.25,0,0,0,.42-2.7,8.68,8.68,0,0,0-.45-2.7,8.21,8.21,0,0,0-1.44-2.61,7.47,7.47,0,0,0-2.58-2,8.73,8.73,0,0,0-3.87-.78h-6.72v16.2Zm7.14,3.36,11.34,18.24h-6.72l-11.58-18.06Z"/><path class="cls-1" d="M1564.77,547.49h5.82v43.38h-5.82Z"/><path class="cls-1" d="M1594.23,547.49q6.54,0,10.29,2.67t3.75,8.25a11.17,11.17,0,0,1-1.56,6,10.84,10.84,0,0,1-4.35,4,16.47,16.47,0,0,1-6.57,1.68L1595,567a22,22,0,0,1,7.86,1.56,13.38,13.38,0,0,1,5.52,4,9.57,9.57,0,0,1,2,6.12,12.13,12.13,0,0,1-1.17,5.55A10.23,10.23,0,0,1,1606,588a14.41,14.41,0,0,1-4.62,2.16,20.47,20.47,0,0,1-5.37.69h-12.9V547.49Zm1.2,19q3.6,0,5.22-2a7.34,7.34,0,0,0,1.62-4.8q0-3.48-2.1-5a9.25,9.25,0,0,0-5.64-1.56h-5.64v13.38Zm.24,19a12.92,12.92,0,0,0,4.44-.72,6.77,6.77,0,0,0,3.15-2.25,6,6,0,0,0,1.17-3.75,5.56,5.56,0,0,0-1.35-4,7.62,7.62,0,0,0-3.45-2.07,15,15,0,0,0-4.32-.63h-6.42v13.38Z"/><path class="cls-1" d="M1625.37,575.51a9.87,9.87,0,0,0,1.41,5.25,10.13,10.13,0,0,0,3.78,3.63,10.61,10.61,0,0,0,5.25,1.32,11.14,11.14,0,0,0,5.46-1.32,9.63,9.63,0,0,0,3.75-3.63,10.21,10.21,0,0,0,1.35-5.25v-28h5.76v28.2A15.58,15.58,0,0,1,1650,584a14.6,14.6,0,0,1-5.88,5.46,18.68,18.68,0,0,1-16.5,0,14.6,14.6,0,0,1-5.88-5.46,15.58,15.58,0,0,1-2.16-8.28v-28.2h5.82Z"/><path class="cls-1" d="M1660.77,547.49h28.86v5.58H1678v37.8h-5.82v-37.8h-11.4Z"/><path class="cls-1" d="M1698.87,547.49h5.82v43.38h-5.82Z"/><path class="cls-1" d="M1714.47,569.21a21.54,21.54,0,0,1,1.71-8.52A22.69,22.69,0,0,1,1728,548.75a21.95,21.95,0,0,1,17.13,0,22.91,22.91,0,0,1,11.94,11.94,22,22,0,0,1,0,17.16,22.39,22.39,0,0,1-11.88,11.79,21.69,21.69,0,0,1-8.58,1.71,21.9,21.9,0,0,1-22.14-22.14Zm6,0a16.69,16.69,0,0,0,1.23,6.45,16.26,16.26,0,0,0,3.48,5.25,16.7,16.7,0,0,0,5.16,3.57,16.18,16.18,0,0,0,12.66,0,16.22,16.22,0,0,0,5.1-3.54,16.74,16.74,0,0,0,3.45-5.25,16.41,16.41,0,0,0,1.26-6.42,16.6,16.6,0,0,0-1.26-6.48,17.49,17.49,0,0,0-3.45-5.31,16,16,0,0,0-17.88-3.57,16.11,16.11,0,0,0-8.55,8.91A17.2,17.2,0,0,0,1720.47,569.21Z"/><path class="cls-1" d="M1806.15,592.25l-33.54-34,1.68.42.12,32.22h-5.82v-44.7h.3L1802,580.31l-1.32-.3-.12-32.52h5.82v44.76Z"/><path class="cls-1" d="M2571.05,374.87l18.9-45.18h.36l19,45.18h-6.66l-14.16-36.06,4.14-2.7-15.78,38.76Zm11.1-16.44h16.14l1.92,5h-19.74Z"/><path class="cls-1" d="M2617.43,331.49h25.74v5.58h-19.92v13.8h17.46v5.58h-17.46v18.42h-5.82Z"/><path class="cls-1" d="M2649.52,331.49h28.86v5.58h-11.64v37.8h-5.82v-37.8h-11.4Z"/><path class="cls-1" d="M2687.62,331.49h28.2v5.58h-22.38v13.2h20v5.64h-20v13.38h23.22v5.58h-29Z"/><path class="cls-1" d="M2738.26,331.49a20.37,20.37,0,0,1,6.09.87,14.15,14.15,0,0,1,4.86,2.58,11.91,11.91,0,0,1,3.24,4.23,13.53,13.53,0,0,1,1.17,5.76,17.19,17.19,0,0,1-.75,5,12.43,12.43,0,0,1-2.46,4.47,12.3,12.3,0,0,1-4.5,3.24,17.19,17.19,0,0,1-6.93,1.23h-6.42v16h-5.82V331.49Zm.6,21.78a10.35,10.35,0,0,0,4.29-.78,7,7,0,0,0,2.67-2,8,8,0,0,0,1.38-2.61,9.25,9.25,0,0,0,.42-2.7,8.68,8.68,0,0,0-.45-2.7,8.21,8.21,0,0,0-1.44-2.61,7.47,7.47,0,0,0-2.58-2,8.73,8.73,0,0,0-3.87-.78h-6.72v16.2Zm7.14,3.36,11.34,18.24h-6.72L2739,356.81Z"/><path class="cls-1" d="M2782.54,353.21a21.54,21.54,0,0,1,1.71-8.52,22.69,22.69,0,0,1,11.82-11.94,21.95,21.95,0,0,1,17.13,0,22.91,22.91,0,0,1,11.94,11.94,22,22,0,0,1,0,17.16,22.39,22.39,0,0,1-11.88,11.79,21.69,21.69,0,0,1-8.58,1.71,21.9,21.9,0,0,1-22.14-22.14Zm6,0a16.69,16.69,0,0,0,1.23,6.45,16.26,16.26,0,0,0,3.48,5.25,16.7,16.7,0,0,0,5.16,3.57,16.18,16.18,0,0,0,12.66,0,16.22,16.22,0,0,0,5.1-3.54,16.74,16.74,0,0,0,3.45-5.25,16.41,16.41,0,0,0,1.26-6.42,16.6,16.6,0,0,0-1.26-6.48,17.49,17.49,0,0,0-3.45-5.31,16,16,0,0,0-17.88-3.57,16.11,16.11,0,0,0-8.55,8.91A17.2,17.2,0,0,0,2788.54,353.21Z"/><path class="cls-1" d="M2874.22,376.25l-33.54-34,1.68.42.12,32.22h-5.82v-44.7h.3l33.12,34.14-1.32-.3-.12-32.52h5.82v44.76Z"/><path class="cls-1" d="M2886.88,331.49h28.2v5.58H2892.7v13.2h20v5.64h-20v13.38h23.22v5.58h-29Z"/><path class="cls-1" d="M2956.48,360.41l-16.08-28.92h7.14l12.9,23.94-1.8.12,12.78-24.06h7.08l-16.2,28.92v14.46h-5.82Z"/><path class="cls-1" d="M2986.42,331.49h28.2v5.58h-22.38v13.2h20v5.64h-20v13.38h23.22v5.58h-29Z"/><path class="cls-1" d="M3021.22,374.87l18.9-45.18h.36l19,45.18h-6.66l-14.16-36.06,4.14-2.7L3027,374.87Zm11.1-16.44h16.14l1.92,5h-19.74Z"/><path class="cls-1" d="M3079.12,331.49a20.37,20.37,0,0,1,6.09.87,14.15,14.15,0,0,1,4.86,2.58,11.91,11.91,0,0,1,3.24,4.23,13.53,13.53,0,0,1,1.17,5.76,17.19,17.19,0,0,1-.75,5,12.43,12.43,0,0,1-2.46,4.47,12.3,12.3,0,0,1-4.5,3.24,17.19,17.19,0,0,1-6.93,1.23h-6.42v16h-5.82V331.49Zm.6,21.78a10.35,10.35,0,0,0,4.29-.78,7,7,0,0,0,2.67-2,8,8,0,0,0,1.38-2.61,9.25,9.25,0,0,0,.42-2.7,8.68,8.68,0,0,0-.45-2.7,8.21,8.21,0,0,0-1.44-2.61,7.47,7.47,0,0,0-2.58-2,8.73,8.73,0,0,0-3.87-.78h-6.72v16.2Zm7.14,3.36,11.34,18.24h-6.72l-11.58-18.06Z"/><path class="cls-1" d="M3123.4,353.21a21.54,21.54,0,0,1,1.71-8.52,22.69,22.69,0,0,1,11.82-11.94,21.95,21.95,0,0,1,17.13,0A22.91,22.91,0,0,1,3166,344.69a22,22,0,0,1,0,17.16,22.39,22.39,0,0,1-11.88,11.79,21.69,21.69,0,0,1-8.58,1.71,21.9,21.9,0,0,1-22.14-22.14Zm6,0a16.69,16.69,0,0,0,1.23,6.45,16.26,16.26,0,0,0,3.48,5.25,16.7,16.7,0,0,0,5.16,3.57,16.18,16.18,0,0,0,12.66,0,16.22,16.22,0,0,0,5.1-3.54,16.74,16.74,0,0,0,3.45-5.25,16.41,16.41,0,0,0,1.26-6.42,16.6,16.6,0,0,0-1.26-6.48,17.49,17.49,0,0,0-3.45-5.31,16,16,0,0,0-17.88-3.57,16.11,16.11,0,0,0-8.55,8.91A17.2,17.2,0,0,0,3129.4,353.21Z"/><path class="cls-1" d="M3177.52,331.49h25.74v5.58h-19.92v13.8h17.46v5.58h-17.46v18.42h-5.82Z"/><path class="cls-1" d="M2540.42,403.49a20.37,20.37,0,0,1,6.09.87,14.15,14.15,0,0,1,4.86,2.58,11.91,11.91,0,0,1,3.24,4.23,13.53,13.53,0,0,1,1.17,5.76,17.19,17.19,0,0,1-.75,5,12.43,12.43,0,0,1-2.46,4.47,12.3,12.3,0,0,1-4.5,3.24,17.19,17.19,0,0,1-6.93,1.23h-6.42v16h-5.82V403.49Zm.6,21.78a10.35,10.35,0,0,0,4.29-.78,7,7,0,0,0,2.67-2,8,8,0,0,0,1.38-2.61,9.25,9.25,0,0,0,.42-2.7,8.68,8.68,0,0,0-.45-2.7,8.21,8.21,0,0,0-1.44-2.61,7.47,7.47,0,0,0-2.58-2,8.73,8.73,0,0,0-3.87-.78h-6.72v16.2Zm7.14,3.36,11.34,18.24h-6.72l-11.58-18.06Z"/><path class="cls-1" d="M2564.78,425.21a21.54,21.54,0,0,1,1.71-8.52,22.69,22.69,0,0,1,11.82-11.94,21.95,21.95,0,0,1,17.13,0,22.91,22.91,0,0,1,11.94,11.94,22,22,0,0,1,0,17.16,22.39,22.39,0,0,1-11.88,11.79,21.69,21.69,0,0,1-8.58,1.71,21.9,21.9,0,0,1-22.14-22.14Zm6,0a16.69,16.69,0,0,0,1.23,6.45,16.26,16.26,0,0,0,3.48,5.25,16.7,16.7,0,0,0,5.16,3.57,16.18,16.18,0,0,0,12.66,0,16.22,16.22,0,0,0,5.1-3.54,16.74,16.74,0,0,0,3.45-5.25,16.41,16.41,0,0,0,1.26-6.42,16.6,16.6,0,0,0-1.26-6.48,17.49,17.49,0,0,0-3.45-5.31,16,16,0,0,0-17.88-3.57,16.11,16.11,0,0,0-8.55,8.91A17.2,17.2,0,0,0,2570.78,425.21Z"/><path class="cls-1" d="M2626.94,432.41l-16.08-28.92H2618l12.9,23.94-1.8.12,12.78-24.06H2649l-16.2,28.92v14.46h-5.82Z"/><path class="cls-1" d="M2646.74,446.87l18.9-45.18h.36l19,45.18h-6.66l-14.16-36.06,4.14-2.7-15.78,38.76Zm11.1-16.44H2674l1.92,5h-19.74Z"/><path class="cls-1" d="M2693.12,403.49h5.82v37.8h22v5.58h-27.84Z"/><path class="cls-1" d="M2722.16,403.49H2751v5.58h-11.64v37.8h-5.82v-37.8h-11.4Z"/><path class="cls-1" d="M2760.26,403.49h5.82v43.38h-5.82Z"/><path class="cls-1" d="M2778.56,403.49h28.2v5.58h-22.38v13.2h20v5.64h-20v13.38h23.22v5.58h-29Z"/><path class="cls-1" d="M2840.11,411.23a31.59,31.59,0,0,0-4.86-2,17,17,0,0,0-5.16-.84,8.76,8.76,0,0,0-5.55,1.62,5.24,5.24,0,0,0-2.07,4.32,4.8,4.8,0,0,0,1.35,3.45,11.82,11.82,0,0,0,3.48,2.43q2.13,1,4.54,1.92a38.33,38.33,0,0,1,3.95,1.71,15.84,15.84,0,0,1,3.57,2.43,10.37,10.37,0,0,1,2.52,3.54,12.73,12.73,0,0,1,.93,5.16,11.71,11.71,0,0,1-6.6,10.74,16.61,16.61,0,0,1-7.62,1.62,22.92,22.92,0,0,1-5.42-.63,23.32,23.32,0,0,1-4.83-1.71,34.12,34.12,0,0,1-4-2.22l2.57-4.56a25.91,25.91,0,0,0,3.3,1.95,20.33,20.33,0,0,0,3.9,1.47,15.45,15.45,0,0,0,4,.54,11.81,11.81,0,0,0,4.08-.72,7.68,7.68,0,0,0,3.3-2.28,6.19,6.19,0,0,0,1.32-4.14,5.77,5.77,0,0,0-1.17-3.66,10,10,0,0,0-3-2.55,31.91,31.91,0,0,0-4.12-1.89,43.25,43.25,0,0,1-4.17-1.68,20.6,20.6,0,0,1-3.84-2.31,10.59,10.59,0,0,1-2.87-3.33,9.57,9.57,0,0,1-1.12-4.8,10.67,10.67,0,0,1,1.66-6,11.39,11.39,0,0,1,4.52-4,15.44,15.44,0,0,1,6.6-1.59,24.6,24.6,0,0,1,7.42,1,29.06,29.06,0,0,1,5.67,2.46Z"/><path class="cls-1" d="M2868.31,403.49h28.86v5.58h-11.64v37.8h-5.82v-37.8h-11.4Z"/><path class="cls-1" d="M2940.73,403.49v43.38h-5.82v-19h-22.68v19h-5.82V403.49h5.82v18.78h22.68V403.49Z"/><path class="cls-1" d="M2953.21,403.49h28.2v5.58H2959v13.2h20v5.64h-20v13.38h23.22v5.58h-29Z"/><path class="cls-1" d="M3022.87,403.49a18.81,18.81,0,0,1,8.1,1.59,11.85,11.85,0,0,1,5.19,4.59,13.68,13.68,0,0,1,1.83,7.26,16.87,16.87,0,0,1-.78,5.07,12.77,12.77,0,0,1-2.49,4.5,12.35,12.35,0,0,1-4.47,3.24,16.46,16.46,0,0,1-6.72,1.23h-6.42v15.9h-5.82V403.49Zm.6,21.78a9.81,9.81,0,0,0,4.26-.81,6.87,6.87,0,0,0,2.64-2.13,9,9,0,0,0,1.38-2.7,8.89,8.89,0,0,0,.42-2.58,9.55,9.55,0,0,0-.42-2.73,7.1,7.1,0,0,0-1.41-2.58,7.52,7.52,0,0,0-2.58-1.92,9.18,9.18,0,0,0-3.93-.75h-6.72v16.2Z"/><path class="cls-1" d="M3044.29,425.21a21.54,21.54,0,0,1,1.71-8.52,22.69,22.69,0,0,1,11.82-11.94,21.95,21.95,0,0,1,17.13,0,22.91,22.91,0,0,1,11.94,11.94,22,22,0,0,1,0,17.16A22.39,22.39,0,0,1,3075,445.64a21.69,21.69,0,0,1-8.58,1.71,21.9,21.9,0,0,1-22.14-22.14Zm6,0a16.69,16.69,0,0,0,1.23,6.45,16.26,16.26,0,0,0,3.48,5.25,16.7,16.7,0,0,0,5.16,3.57,16.18,16.18,0,0,0,12.66,0,16.22,16.22,0,0,0,5.1-3.54,16.74,16.74,0,0,0,3.45-5.25,16.41,16.41,0,0,0,1.26-6.42,16.6,16.6,0,0,0-1.26-6.48,17.49,17.49,0,0,0-3.45-5.31,16,16,0,0,0-17.88-3.57,16.11,16.11,0,0,0-8.55,8.91A17.2,17.2,0,0,0,3050.29,425.21Z"/><path class="cls-1" d="M3095.71,425.21a21.54,21.54,0,0,1,1.71-8.52,22.69,22.69,0,0,1,11.82-11.94,21.95,21.95,0,0,1,17.13,0,22.91,22.91,0,0,1,11.94,11.94,22,22,0,0,1,0,17.16,22.39,22.39,0,0,1-11.88,11.79,21.69,21.69,0,0,1-8.58,1.71,21.9,21.9,0,0,1-22.14-22.14Zm6,0a16.69,16.69,0,0,0,1.23,6.45,16.26,16.26,0,0,0,3.48,5.25,16.7,16.7,0,0,0,5.16,3.57,16.18,16.18,0,0,0,12.66,0,16.22,16.22,0,0,0,5.1-3.54,16.74,16.74,0,0,0,3.45-5.25,16.41,16.41,0,0,0,1.26-6.42,16.6,16.6,0,0,0-1.26-6.48,17.49,17.49,0,0,0-3.45-5.31,16,16,0,0,0-17.88-3.57,16.11,16.11,0,0,0-8.55,8.91A17.2,17.2,0,0,0,3101.71,425.21Z"/><path class="cls-1" d="M3149.83,403.49h5.82v37.8h22v5.58h-27.84Z"/><path class="cls-1" d="M3206.11,403.49h5.82v43.38h-5.82Z"/><path class="cls-1" d="M3246.85,411.23a31.59,31.59,0,0,0-4.86-2,17,17,0,0,0-5.16-.84,8.76,8.76,0,0,0-5.55,1.62,5.21,5.21,0,0,0-2.07,4.32,4.8,4.8,0,0,0,1.35,3.45,11.82,11.82,0,0,0,3.48,2.43q2.13,1,4.53,1.92a37.56,37.56,0,0,1,4,1.71,15.84,15.84,0,0,1,3.57,2.43,10.37,10.37,0,0,1,2.52,3.54,12.73,12.73,0,0,1,.93,5.16,11.71,11.71,0,0,1-6.6,10.74,16.61,16.61,0,0,1-7.62,1.62,23.06,23.06,0,0,1-5.43-.63,23.74,23.74,0,0,1-4.83-1.71,35.87,35.87,0,0,1-4-2.22l2.58-4.56a25.23,25.23,0,0,0,3.3,1.95,20.33,20.33,0,0,0,3.9,1.47,15.45,15.45,0,0,0,4,.54,11.85,11.85,0,0,0,4.08-.72,7.68,7.68,0,0,0,3.3-2.28,6.19,6.19,0,0,0,1.32-4.14,5.77,5.77,0,0,0-1.17-3.66,9.92,9.92,0,0,0-3.06-2.55,31.16,31.16,0,0,0-4.11-1.89,43.25,43.25,0,0,1-4.17-1.68,20.6,20.6,0,0,1-3.84-2.31,10.75,10.75,0,0,1-2.88-3.33,9.68,9.68,0,0,1-1.11-4.8,10.74,10.74,0,0,1,1.65-6,11.49,11.49,0,0,1,4.53-4,15.44,15.44,0,0,1,6.6-1.59,24.49,24.49,0,0,1,7.41,1,28.54,28.54,0,0,1,5.67,2.46Z"/><path class="cls-1" d="M2508,475.49a20.37,20.37,0,0,1,6.09.87,14.15,14.15,0,0,1,4.86,2.58,11.91,11.91,0,0,1,3.24,4.23,13.53,13.53,0,0,1,1.17,5.76,17.19,17.19,0,0,1-.75,5,12.43,12.43,0,0,1-2.46,4.47,12.3,12.3,0,0,1-4.5,3.24,17.19,17.19,0,0,1-6.93,1.23h-6.42v16h-5.82V475.49Zm.6,21.78a10.35,10.35,0,0,0,4.29-.78,7,7,0,0,0,2.67-2,8,8,0,0,0,1.38-2.61,9.25,9.25,0,0,0,.42-2.7,8.68,8.68,0,0,0-.45-2.7,8.21,8.21,0,0,0-1.44-2.61,7.47,7.47,0,0,0-2.58-2,8.73,8.73,0,0,0-3.87-.78h-6.72v16.2Zm7.14,3.36,11.34,18.24h-6.72l-11.58-18.06Z"/><path class="cls-1" d="M2536,475.49h28.2v5.58h-22.38v13.2h20v5.64h-20v13.38h23.22v5.58h-29Z"/><path class="cls-1" d="M2570.81,518.87l18.9-45.18h.36l19,45.18h-6.66l-14.16-36.06,4.14-2.7-15.78,38.76Zm11.1-16.44h16.14l1.92,5h-19.74Z"/><path class="cls-1" d="M2617.19,518.87V475.49H2629a27.6,27.6,0,0,1,11,1.95,19.67,19.67,0,0,1,7.29,5.22,20.85,20.85,0,0,1,4,7.17,25.43,25.43,0,0,1,1.26,7.86,21.75,21.75,0,0,1-1.71,8.82,19.85,19.85,0,0,1-4.68,6.66,20.89,20.89,0,0,1-6.84,4.23,22.91,22.91,0,0,1-8.19,1.47Zm5.81-5.58h7a19.47,19.47,0,0,0,6.57-1.08,15.62,15.62,0,0,0,5.28-3.12,14.21,14.21,0,0,0,3.51-5,19.1,19.1,0,0,0-.06-13.8,14.42,14.42,0,0,0-3.6-5.07,15.77,15.77,0,0,0-5.16-3.09,17.42,17.42,0,0,0-6-1.05H2623Z"/><path class="cls-1" d="M2672,504.41l-16.08-28.92H2663l12.89,23.94-1.79.12,12.78-24.06H2694l-16.2,28.92v14.46H2672Z"/><path class="cls-1" d="M2720.86,475.49h25.74v5.58h-19.92v13.8h17.46v5.58h-17.46v18.42h-5.82Z"/><path class="cls-1" d="M2752.6,497.21a21.54,21.54,0,0,1,1.71-8.52,22.69,22.69,0,0,1,11.82-11.94,21.95,21.95,0,0,1,17.13,0,22.91,22.91,0,0,1,11.94,11.94,22,22,0,0,1,0,17.16,22.39,22.39,0,0,1-11.88,11.79,21.69,21.69,0,0,1-8.58,1.71,21.9,21.9,0,0,1-22.14-22.14Zm6,0a16.69,16.69,0,0,0,1.23,6.45,16.26,16.26,0,0,0,3.48,5.25,16.7,16.7,0,0,0,5.16,3.57,16.18,16.18,0,0,0,12.66,0,16.22,16.22,0,0,0,5.1-3.54,16.74,16.74,0,0,0,3.45-5.25,16.41,16.41,0,0,0,1.26-6.42,16.6,16.6,0,0,0-1.26-6.48,17.49,17.49,0,0,0-3.45-5.31,16,16,0,0,0-17.88-3.57,16.11,16.11,0,0,0-8.55,8.91A17.2,17.2,0,0,0,2758.6,497.21Z"/><path class="cls-1" d="M2818.24,475.49a20.37,20.37,0,0,1,6.09.87,14.15,14.15,0,0,1,4.86,2.58,11.91,11.91,0,0,1,3.24,4.23,13.53,13.53,0,0,1,1.17,5.76,17.19,17.19,0,0,1-.75,5,12.43,12.43,0,0,1-2.46,4.47,12.3,12.3,0,0,1-4.5,3.24,17.19,17.19,0,0,1-6.93,1.23h-6.42v16h-5.82V475.49Zm.6,21.78a10.35,10.35,0,0,0,4.29-.78,7,7,0,0,0,2.67-2,8,8,0,0,0,1.38-2.61,9.25,9.25,0,0,0,.42-2.7,8.68,8.68,0,0,0-.45-2.7,8.21,8.21,0,0,0-1.44-2.61,7.47,7.47,0,0,0-2.58-2,8.73,8.73,0,0,0-3.87-.78h-6.72v16.2Zm7.14,3.36,11.34,18.24h-6.72L2819,500.81Z"/><path class="cls-1" d="M2865.22,518.87V475.49H2877a27.58,27.58,0,0,1,11,1.95,19.67,19.67,0,0,1,7.29,5.22,20.85,20.85,0,0,1,4.05,7.17,25.43,25.43,0,0,1,1.26,7.86,21.75,21.75,0,0,1-1.71,8.82,19.85,19.85,0,0,1-4.68,6.66,20.79,20.79,0,0,1-6.84,4.23,22.87,22.87,0,0,1-8.19,1.47Zm5.82-5.58h7a19.43,19.43,0,0,0,6.57-1.08,15.52,15.52,0,0,0,5.28-3.12,14.08,14.08,0,0,0,3.51-5,19.1,19.1,0,0,0-.06-13.8,14.42,14.42,0,0,0-3.6-5.07,15.77,15.77,0,0,0-5.16-3.09,17.38,17.38,0,0,0-6-1.05H2871Z"/><path class="cls-1" d="M2910.4,475.49h5.82v43.38h-5.82Z"/><path class="cls-1" d="M2951.14,483.23a31.59,31.59,0,0,0-4.86-2,17,17,0,0,0-5.16-.84,8.76,8.76,0,0,0-5.55,1.62,5.21,5.21,0,0,0-2.07,4.32,4.8,4.8,0,0,0,1.35,3.45,11.82,11.82,0,0,0,3.48,2.43q2.13,1,4.53,1.92a37.56,37.56,0,0,1,4,1.71,15.84,15.84,0,0,1,3.57,2.43,10.37,10.37,0,0,1,2.52,3.54,12.73,12.73,0,0,1,.93,5.16,11.71,11.71,0,0,1-6.6,10.74,16.61,16.61,0,0,1-7.62,1.62,23.06,23.06,0,0,1-5.43-.63,23.74,23.74,0,0,1-4.83-1.71,35.87,35.87,0,0,1-4-2.22l2.58-4.56a25.23,25.23,0,0,0,3.3,1.95,20.33,20.33,0,0,0,3.9,1.47,15.45,15.45,0,0,0,4,.54,11.85,11.85,0,0,0,4.08-.72,7.68,7.68,0,0,0,3.3-2.28,6.19,6.19,0,0,0,1.32-4.14,5.77,5.77,0,0,0-1.17-3.66,9.92,9.92,0,0,0-3.06-2.55,31.16,31.16,0,0,0-4.11-1.89,43.25,43.25,0,0,1-4.17-1.68,20.6,20.6,0,0,1-3.84-2.31,10.75,10.75,0,0,1-2.88-3.33,9.68,9.68,0,0,1-1.11-4.8,10.74,10.74,0,0,1,1.65-6,11.49,11.49,0,0,1,4.53-4,15.44,15.44,0,0,1,6.6-1.59,24.49,24.49,0,0,1,7.41,1,28.54,28.54,0,0,1,5.67,2.46Z"/><path class="cls-1" d="M2960.08,475.49h28.86v5.58H2977.3v37.8h-5.82v-37.8h-11.4Z"/><path class="cls-1" d="M3009.7,475.49a20.37,20.37,0,0,1,6.09.87,14.15,14.15,0,0,1,4.86,2.58,11.91,11.91,0,0,1,3.24,4.23,13.53,13.53,0,0,1,1.17,5.76,17.19,17.19,0,0,1-.75,5,12.43,12.43,0,0,1-2.46,4.47,12.3,12.3,0,0,1-4.5,3.24,17.19,17.19,0,0,1-6.93,1.23H3004v16h-5.82V475.49Zm.6,21.78a10.35,10.35,0,0,0,4.29-.78,7,7,0,0,0,2.67-2,8,8,0,0,0,1.38-2.61,9.25,9.25,0,0,0,.42-2.7,8.68,8.68,0,0,0-.45-2.7,8.21,8.21,0,0,0-1.44-2.61,7.47,7.47,0,0,0-2.58-2,8.73,8.73,0,0,0-3.87-.78H3004v16.2Zm7.14,3.36,11.34,18.24h-6.72l-11.58-18.06Z"/><path class="cls-1" d="M3037.72,475.49h5.82v43.38h-5.82Z"/><path class="cls-1" d="M3067.18,475.49q6.54,0,10.29,2.67t3.75,8.25a11.17,11.17,0,0,1-1.56,6,10.84,10.84,0,0,1-4.35,4,16.47,16.47,0,0,1-6.57,1.68l-.84-3.06a22,22,0,0,1,7.86,1.56,13.38,13.38,0,0,1,5.52,4,9.57,9.57,0,0,1,2,6.12,12.13,12.13,0,0,1-1.17,5.55,10.23,10.23,0,0,1-3.24,3.78,14.41,14.41,0,0,1-4.62,2.16,20.47,20.47,0,0,1-5.37.69H3056V475.49Zm1.2,19q3.6,0,5.22-2a7.34,7.34,0,0,0,1.62-4.8q0-3.48-2.1-5a9.25,9.25,0,0,0-5.64-1.56h-5.64v13.38Zm.24,19a12.92,12.92,0,0,0,4.44-.72,6.77,6.77,0,0,0,3.15-2.25,6,6,0,0,0,1.17-3.75,5.56,5.56,0,0,0-1.35-4,7.62,7.62,0,0,0-3.45-2.07,15,15,0,0,0-4.32-.63h-6.42v13.38Z"/><path class="cls-1" d="M3098.32,503.51a9.87,9.87,0,0,0,1.41,5.25,10.13,10.13,0,0,0,3.78,3.63,10.61,10.61,0,0,0,5.25,1.32,11.14,11.14,0,0,0,5.46-1.32,9.63,9.63,0,0,0,3.75-3.63,10.21,10.21,0,0,0,1.35-5.25v-28h5.76v28.2a15.58,15.58,0,0,1-2.16,8.28,14.6,14.6,0,0,1-5.88,5.46,18.68,18.68,0,0,1-16.5,0,14.6,14.6,0,0,1-5.88-5.46,15.58,15.58,0,0,1-2.16-8.28v-28.2h5.82Z"/><path class="cls-1" d="M3133.72,475.49h28.86v5.58h-11.64v37.8h-5.82v-37.8h-11.4Z"/><path class="cls-1" d="M3171.82,475.49h5.82v43.38h-5.82Z"/><path class="cls-1" d="M3187.42,497.21a21.54,21.54,0,0,1,1.71-8.52A22.69,22.69,0,0,1,3201,476.75a21.95,21.95,0,0,1,17.13,0A22.91,22.91,0,0,1,3230,488.69a22,22,0,0,1,0,17.16,22.39,22.39,0,0,1-11.88,11.79,21.69,21.69,0,0,1-8.58,1.71,21.9,21.9,0,0,1-22.14-22.14Zm6,0a16.69,16.69,0,0,0,1.23,6.45,16.26,16.26,0,0,0,3.48,5.25,16.7,16.7,0,0,0,5.16,3.57,16.18,16.18,0,0,0,12.66,0,16.22,16.22,0,0,0,5.1-3.54,16.74,16.74,0,0,0,3.45-5.25,16.41,16.41,0,0,0,1.26-6.42,16.6,16.6,0,0,0-1.26-6.48,17.49,17.49,0,0,0-3.45-5.31,16,16,0,0,0-17.88-3.57,16.11,16.11,0,0,0-8.55,8.91A17.2,17.2,0,0,0,3193.42,497.21Z"/><path class="cls-1" d="M3279.1,520.25l-33.54-34,1.68.42.12,32.22h-5.82v-44.7h.3L3275,508.31l-1.32-.3-.12-32.52h5.82v44.76Z"/><path class="cls-1" d="M3887.64,374.87l18.9-45.18h.36l19,45.18h-6.66L3905,338.81l4.14-2.7-15.78,38.76Zm11.1-16.44h16.14l1.92,5h-19.74Z"/><path class="cls-1" d="M3938.28,359.51a9.87,9.87,0,0,0,1.41,5.25,10.13,10.13,0,0,0,3.78,3.63,10.61,10.61,0,0,0,5.25,1.32,11.14,11.14,0,0,0,5.46-1.32,9.63,9.63,0,0,0,3.75-3.63,10.21,10.21,0,0,0,1.35-5.25v-28H3965v28.2a15.58,15.58,0,0,1-2.16,8.28,14.6,14.6,0,0,1-5.88,5.46,18.68,18.68,0,0,1-16.5,0,14.6,14.6,0,0,1-5.88-5.46,15.58,15.58,0,0,1-2.16-8.28v-28.2h5.82Z"/><path class="cls-1" d="M3973.68,331.49h28.86v5.58H3990.9v37.8h-5.82v-37.8h-11.4Z"/><path class="cls-1" d="M4046.1,331.49v43.38h-5.82v-19H4017.6v19h-5.82V331.49h5.82v18.78h22.68V331.49Z"/><path class="cls-1" d="M4055.88,353.21a21.54,21.54,0,0,1,1.71-8.52,22.69,22.69,0,0,1,11.82-11.94,21.95,21.95,0,0,1,17.13,0,22.81,22.81,0,0,1,7.1,4.83,22.57,22.57,0,0,1,4.83,7.11,22,22,0,0,1,0,17.16,22.33,22.33,0,0,1-11.87,11.79,22,22,0,0,1-30.72-20.43Zm6,0a16.69,16.69,0,0,0,1.23,6.45,16.26,16.26,0,0,0,3.48,5.25,16.58,16.58,0,0,0,5.16,3.57,16.18,16.18,0,0,0,12.66,0,16.33,16.33,0,0,0,5.1-3.54,16.92,16.92,0,0,0,3.45-5.25,16.58,16.58,0,0,0,1.25-6.42,16.78,16.78,0,0,0-1.25-6.48,17.68,17.68,0,0,0-3.45-5.31,16,16,0,0,0-17.88-3.57,16,16,0,0,0-8.55,8.91A17.2,17.2,0,0,0,4061.88,353.21Z"/><path class="cls-1" d="M4121.52,331.49a20.42,20.42,0,0,1,6.09.87,14.1,14.1,0,0,1,4.85,2.58,11.82,11.82,0,0,1,3.25,4.23,13.53,13.53,0,0,1,1.17,5.76,17.19,17.19,0,0,1-.75,5,12.59,12.59,0,0,1-2.46,4.47,12.3,12.3,0,0,1-4.5,3.24,17.23,17.23,0,0,1-6.93,1.23h-6.43v16H4110V331.49Zm.6,21.78a10.38,10.38,0,0,0,4.29-.78,7.05,7.05,0,0,0,2.67-2,8.22,8.22,0,0,0,1.38-2.61,9.59,9.59,0,0,0,.42-2.7,9,9,0,0,0-.45-2.7,8.41,8.41,0,0,0-1.44-2.61,7.57,7.57,0,0,0-2.58-2,8.76,8.76,0,0,0-3.87-.78h-6.73v16.2Zm7.14,3.36,11.34,18.24h-6.72l-11.59-18.06Z"/><path class="cls-1" d="M4172,339.23a31.47,31.47,0,0,0-4.85-2,17,17,0,0,0-5.16-.84,8.75,8.75,0,0,0-5.55,1.62,5.21,5.21,0,0,0-2.07,4.32,4.8,4.8,0,0,0,1.35,3.45,11.69,11.69,0,0,0,3.48,2.43c1.41.68,2.93,1.32,4.53,1.92a37.56,37.56,0,0,1,4,1.71,15.78,15.78,0,0,1,3.56,2.43,10.26,10.26,0,0,1,2.53,3.54,12.73,12.73,0,0,1,.93,5.16,11.75,11.75,0,0,1-6.6,10.74,16.61,16.61,0,0,1-7.62,1.62,23,23,0,0,1-5.43-.63,23.52,23.52,0,0,1-4.83-1.71,34.12,34.12,0,0,1-4-2.22l2.57-4.56a26.06,26.06,0,0,0,3.31,1.95,20.08,20.08,0,0,0,3.9,1.47,15.43,15.43,0,0,0,3.95.54,11.77,11.77,0,0,0,4.08-.72,7.71,7.71,0,0,0,3.31-2.28,6.25,6.25,0,0,0,1.32-4.14,5.77,5.77,0,0,0-1.17-3.66,10,10,0,0,0-3.06-2.55,31.76,31.76,0,0,0-4.11-1.89,42.24,42.24,0,0,1-4.17-1.68,20.28,20.28,0,0,1-3.84-2.31,10.62,10.62,0,0,1-2.88-3.33,9.68,9.68,0,0,1-1.11-4.8,10.66,10.66,0,0,1,1.65-6,11.49,11.49,0,0,1,4.53-4,15.4,15.4,0,0,1,6.6-1.59,24.58,24.58,0,0,1,7.41,1,29.06,29.06,0,0,1,5.67,2.46Z"/><path class="cls-1" d="M4199.09,374.87l18.9-45.18h.36l19,45.18h-6.66l-14.16-36.06,4.14-2.7-15.78,38.76Zm11.1-16.44h16.14l1.92,5h-19.74Z"/><path class="cls-1" d="M4283,376.25l-33.54-34,1.68.42.12,32.22h-5.82v-44.7h.3l33.12,34.14-1.32-.3-.12-32.52h5.82v44.76Z"/><path class="cls-1" d="M4295.69,374.87V331.49h11.82a27.58,27.58,0,0,1,11,1.95,19.67,19.67,0,0,1,7.29,5.22,20.85,20.85,0,0,1,4.05,7.17,25.43,25.43,0,0,1,1.26,7.86,21.75,21.75,0,0,1-1.71,8.82,19.85,19.85,0,0,1-4.68,6.66,20.79,20.79,0,0,1-6.84,4.23,22.87,22.87,0,0,1-8.19,1.47Zm5.82-5.58h7a19.43,19.43,0,0,0,6.57-1.08,15.52,15.52,0,0,0,5.28-3.12,14.08,14.08,0,0,0,3.51-5,19.1,19.1,0,0,0-.06-13.8,14.42,14.42,0,0,0-3.6-5.07,15.77,15.77,0,0,0-5.16-3.09,17.38,17.38,0,0,0-6-1.05h-7.56Z"/><path class="cls-1" d="M4371.35,331.49a20.37,20.37,0,0,1,6.09.87,14.15,14.15,0,0,1,4.86,2.58,11.91,11.91,0,0,1,3.24,4.23,13.53,13.53,0,0,1,1.17,5.76,17.19,17.19,0,0,1-.75,5,12.43,12.43,0,0,1-2.46,4.47,12.3,12.3,0,0,1-4.5,3.24,17.19,17.19,0,0,1-6.93,1.23h-6.42v16h-5.82V331.49Zm.6,21.78a10.35,10.35,0,0,0,4.29-.78,7,7,0,0,0,2.67-2,8,8,0,0,0,1.38-2.61,9.25,9.25,0,0,0,.42-2.7,8.68,8.68,0,0,0-.45-2.7,8.21,8.21,0,0,0-1.44-2.61,7.47,7.47,0,0,0-2.58-2,8.73,8.73,0,0,0-3.87-.78h-6.72v16.2Zm7.14,3.36,11.34,18.24h-6.72l-11.58-18.06Z"/><path class="cls-1" d="M4399.37,331.49h28.2v5.58h-22.38v13.2h20v5.64h-20v13.38h23.22v5.58h-29Z"/><path class="cls-1" d="M4441.61,331.49l14.28,35.88-3.3-.66,13.5-35.22h6.9l-19.14,45.42-19.2-45.42Z"/><path class="cls-1" d="M4481.63,331.49h5.82v43.38h-5.82Z"/><path class="cls-1" d="M4499.93,331.49h28.2v5.58h-22.38v13.2h20v5.64h-20v13.38H4529v5.58h-29Z"/><path class="cls-1" d="M4535.21,331.67h6.84l11.7,33.12-1-.36,8.58-22.26L4564,350l-11.52,26.88Zm20.94,0h5.76l12.78,32.7-1.26-.24,11.16-32.46h6.24l-17,45.12Z"/><path class="cls-1" d="M4599.53,331.49h28.2v5.58h-22.38v13.2h20v5.64h-20v13.38h23.22v5.58h-29Z"/><path class="cls-1" d="M4650.17,331.49a20.37,20.37,0,0,1,6.09.87,14.15,14.15,0,0,1,4.86,2.58,11.91,11.91,0,0,1,3.24,4.23,13.53,13.53,0,0,1,1.17,5.76,17.19,17.19,0,0,1-.75,5,12.43,12.43,0,0,1-2.46,4.47,12.3,12.3,0,0,1-4.5,3.24,17.19,17.19,0,0,1-6.93,1.23h-6.42v16h-5.82V331.49Zm.6,21.78a10.35,10.35,0,0,0,4.29-.78,7,7,0,0,0,2.67-2,8,8,0,0,0,1.38-2.61,9.25,9.25,0,0,0,.42-2.7,8.68,8.68,0,0,0-.45-2.7,8.21,8.21,0,0,0-1.44-2.61,7.47,7.47,0,0,0-2.58-2,8.73,8.73,0,0,0-3.87-.78h-6.72v16.2Zm7.14,3.36,11.34,18.24h-6.72L4651,356.81Z"/><path class="cls-1" d="M4700.63,339.23a31.59,31.59,0,0,0-4.86-2,17,17,0,0,0-5.16-.84,8.76,8.76,0,0,0-5.55,1.62,5.21,5.21,0,0,0-2.07,4.32,4.8,4.8,0,0,0,1.35,3.45,11.82,11.82,0,0,0,3.48,2.43q2.13,1,4.53,1.92a37.56,37.56,0,0,1,4,1.71,15.84,15.84,0,0,1,3.57,2.43,10.37,10.37,0,0,1,2.52,3.54,12.73,12.73,0,0,1,.93,5.16,11.71,11.71,0,0,1-6.6,10.74,16.61,16.61,0,0,1-7.62,1.62,23.06,23.06,0,0,1-5.43-.63,23.74,23.74,0,0,1-4.83-1.71,35.87,35.87,0,0,1-4-2.22l2.58-4.56a25.23,25.23,0,0,0,3.3,1.95,20.33,20.33,0,0,0,3.9,1.47,15.45,15.45,0,0,0,4,.54,11.85,11.85,0,0,0,4.08-.72,7.68,7.68,0,0,0,3.3-2.28,6.19,6.19,0,0,0,1.32-4.14,5.77,5.77,0,0,0-1.17-3.66,9.92,9.92,0,0,0-3.06-2.55A31.16,31.16,0,0,0,4689,355a43.25,43.25,0,0,1-4.17-1.68A20.6,20.6,0,0,1,4681,351a10.75,10.75,0,0,1-2.88-3.33,9.68,9.68,0,0,1-1.11-4.8,10.74,10.74,0,0,1,1.65-6,11.49,11.49,0,0,1,4.53-4,15.44,15.44,0,0,1,6.6-1.59,24.49,24.49,0,0,1,7.41,1,28.54,28.54,0,0,1,5.67,2.46Z"/><path class="cls-1" d="M3853.86,443.63a25.44,25.44,0,0,1-2.94,1.62,21.65,21.65,0,0,1-4.35,1.5,24.21,24.21,0,0,1-14.52-1.2,20.41,20.41,0,0,1-11.25-11.67,23.27,23.27,0,0,1-1.5-8.37,25.08,25.08,0,0,1,1.56-9,20.87,20.87,0,0,1,4.47-7.14,20.61,20.61,0,0,1,6.84-4.71,21.68,21.68,0,0,1,8.61-1.68,22.49,22.49,0,0,1,7.08,1.05,26.75,26.75,0,0,1,5.46,2.43L3851,412a23.41,23.41,0,0,0-4.38-2.34,15.08,15.08,0,0,0-11.64.18,15.53,15.53,0,0,0-5,3.54,16.9,16.9,0,0,0-4.62,11.82,18.74,18.74,0,0,0,1.11,6.51,15.66,15.66,0,0,0,3.18,5.28,14.44,14.44,0,0,0,5,3.51,16.6,16.6,0,0,0,6.6,1.26,15.9,15.9,0,0,0,5.88-1,18.33,18.33,0,0,0,4.26-2.28Z"/><path class="cls-1" d="M3859.32,446.87l18.9-45.18h.36l19,45.18h-6.66l-14.16-36.06,4.14-2.7-15.78,38.76Zm11.1-16.44h16.14l1.92,5h-19.74Z"/><path class="cls-1" d="M3943.26,448.25l-33.55-34,1.69.42.12,32.22h-5.82v-44.7h.3l33.12,34.14-1.33-.3-.11-32.52h5.82v44.76Z"/><path class="cls-1" d="M3974.88,403.49h28.2v5.58H3980.7v13.2h20v5.64h-20v13.38h23.22v5.58h-29Z"/><path class="cls-1" d="M4009.79,446.87l15.06-23.64,2.82,5.7L4017,446.87Zm.6-43.38h7.38L4046,446.87h-7.5Zm17.52,17.7,10.5-17.7h7L4031,426.11Z"/><path class="cls-1" d="M4084.07,443.63a23.84,23.84,0,0,1-2.94,1.62,21.54,21.54,0,0,1-4.34,1.5,23.53,23.53,0,0,1-5.5.6,23.29,23.29,0,0,1-9-1.8A20.41,20.41,0,0,1,4051,433.88a23.27,23.27,0,0,1-1.5-8.37,25.3,25.3,0,0,1,1.55-9,21,21,0,0,1,4.47-7.14,20.71,20.71,0,0,1,6.84-4.71A21.71,21.71,0,0,1,4071,403a22.41,22.41,0,0,1,7.08,1.05,26.85,26.85,0,0,1,5.47,2.43L4081.2,412a23.52,23.52,0,0,0-4.39-2.34,15.06,15.06,0,0,0-11.63.18,15.32,15.32,0,0,0-5,3.54,16.85,16.85,0,0,0-4.63,11.82,18.74,18.74,0,0,0,1.12,6.51,15.34,15.34,0,0,0,3.18,5.28,14.26,14.26,0,0,0,5,3.51,16.55,16.55,0,0,0,6.59,1.26,16,16,0,0,0,5.89-1,18.76,18.76,0,0,0,4.26-2.28Z"/><path class="cls-1" d="M4128.17,403.49v43.38h-5.82v-19h-22.68v19h-5.82V403.49h5.82v18.78h22.68V403.49Z"/><path class="cls-1" d="M4136.33,446.87l18.9-45.18h.36l19,45.18h-6.66l-14.16-36.06,4.14-2.7-15.78,38.76Zm11.1-16.44h16.14l1.92,5h-19.74Z"/><path class="cls-1" d="M4220.27,448.25l-33.54-34,1.68.42.12,32.22h-5.82v-44.7h.3l33.12,34.14-1.32-.3-.12-32.52h5.82v44.76Z"/><path class="cls-1" d="M4266.89,443.15a10.82,10.82,0,0,1-2.52,1.53,28.34,28.34,0,0,1-3.57,1.35,33.13,33.13,0,0,1-4,1,22.46,22.46,0,0,1-3.9.36,26,26,0,0,1-9.42-1.62,21,21,0,0,1-7.17-4.5,19.33,19.33,0,0,1-4.53-6.78,22.41,22.41,0,0,1-1.56-8.4,25.31,25.31,0,0,1,1.77-9.78,21.34,21.34,0,0,1,4.83-7.23,20.49,20.49,0,0,1,7.11-4.5,23.82,23.82,0,0,1,8.49-1.53,27.25,27.25,0,0,1,7.08.87,23.09,23.09,0,0,1,5.7,2.31l-1.92,5.34a23.76,23.76,0,0,0-3-1.29,27.87,27.87,0,0,0-3.63-1,16.76,16.76,0,0,0-3.42-.39,19.63,19.63,0,0,0-7,1.17,15.35,15.35,0,0,0-5.34,3.36,14.67,14.67,0,0,0-3.45,5.28,19,19,0,0,0-1.2,6.93,17.06,17.06,0,0,0,1.2,6.45,14.22,14.22,0,0,0,3.45,5.1,15.49,15.49,0,0,0,5.31,3.27,19.47,19.47,0,0,0,6.84,1.14,22.58,22.58,0,0,0,4.32-.42,11.25,11.25,0,0,0,3.66-1.32v-8.52h-8.58v-5.64h14.46Z"/><path class="cls-1" d="M4278,403.49h28.2v5.58h-22.38v13.2h20v5.64h-20v13.38H4307v5.58h-29Z"/><path class="cls-1" d="M4332.83,403.49h28.86v5.58h-11.64v37.8h-5.82v-37.8h-11.4Z"/><path class="cls-1" d="M4405.25,403.49v43.38h-5.82v-19h-22.68v19h-5.82V403.49h5.82v18.78h22.68V403.49Z"/><path class="cls-1" d="M4417.73,403.49h28.2v5.58h-22.38v13.2h20v5.64h-20v13.38h23.22v5.58h-29Z"/><path class="cls-1" d="M4456.85,403.49h5.82v43.38h-5.82Z"/><path class="cls-1" d="M4486.67,403.49a20.37,20.37,0,0,1,6.09.87,14.15,14.15,0,0,1,4.86,2.58,11.91,11.91,0,0,1,3.24,4.23,13.53,13.53,0,0,1,1.17,5.76,17.19,17.19,0,0,1-.75,5,12.43,12.43,0,0,1-2.46,4.47,12.3,12.3,0,0,1-4.5,3.24,17.19,17.19,0,0,1-6.93,1.23H4481v16h-5.82V403.49Zm.6,21.78a10.35,10.35,0,0,0,4.29-.78,7,7,0,0,0,2.67-2,8,8,0,0,0,1.38-2.61,9.25,9.25,0,0,0,.42-2.7,8.68,8.68,0,0,0-.45-2.7,8.21,8.21,0,0,0-1.44-2.61,7.47,7.47,0,0,0-2.58-2,8.73,8.73,0,0,0-3.87-.78H4481v16.2Zm7.14,3.36,11.34,18.24H4499l-11.58-18.06Z"/><path class="cls-1" d="M4530.41,403.49h28.86v5.58h-11.64v37.8h-5.82v-37.8h-11.4Z"/><path class="cls-1" d="M4564,425.21a21.54,21.54,0,0,1,1.71-8.52,22.69,22.69,0,0,1,11.82-11.94,21.95,21.95,0,0,1,17.13,0,22.91,22.91,0,0,1,11.94,11.94,22,22,0,0,1,0,17.16,22.39,22.39,0,0,1-11.88,11.79,21.69,21.69,0,0,1-8.58,1.71A21.9,21.9,0,0,1,4564,425.21Zm6,0a16.69,16.69,0,0,0,1.23,6.45,16.26,16.26,0,0,0,3.48,5.25,16.7,16.7,0,0,0,5.16,3.57,16.18,16.18,0,0,0,12.66,0,16.22,16.22,0,0,0,5.1-3.54,16.74,16.74,0,0,0,3.45-5.25,16.41,16.41,0,0,0,1.26-6.42,16.6,16.6,0,0,0-1.26-6.48,17.49,17.49,0,0,0-3.45-5.31,16,16,0,0,0-17.88-3.57,16.11,16.11,0,0,0-8.55,8.91A17.2,17.2,0,0,0,4570,425.21Z"/><path class="cls-1" d="M4624,421l-.12,2.16.72-1.08,17.76-18.54h7.5l-17.94,18.6,19,24.78h-7.38l-15.84-21.06-3.66,3.54v17.52h-5.88V403.49H4624Z"/><path class="cls-1" d="M4658.81,403.49H4687v5.58h-22.38v13.2h20v5.64h-20v13.38h23.22v5.58h-29Z"/><path class="cls-1" d="M4735.49,448.25l-33.54-34,1.68.42.12,32.22h-5.82v-44.7h.3l33.12,34.14L4730,436l-.12-32.52h5.82v44.76Z"/><path class="cls-1" d="M4770.59,411.23a31.59,31.59,0,0,0-4.86-2,17,17,0,0,0-5.16-.84A8.76,8.76,0,0,0,4755,410a5.21,5.21,0,0,0-2.07,4.32,4.8,4.8,0,0,0,1.35,3.45,11.82,11.82,0,0,0,3.48,2.43q2.13,1,4.53,1.92a37.56,37.56,0,0,1,4,1.71,15.84,15.84,0,0,1,3.57,2.43,10.37,10.37,0,0,1,2.52,3.54,12.73,12.73,0,0,1,.93,5.16,11.71,11.71,0,0,1-6.6,10.74,16.61,16.61,0,0,1-7.62,1.62,23.06,23.06,0,0,1-5.43-.63,23.74,23.74,0,0,1-4.83-1.71,35.87,35.87,0,0,1-4-2.22l2.58-4.56a25.23,25.23,0,0,0,3.3,1.95,20.33,20.33,0,0,0,3.9,1.47,15.45,15.45,0,0,0,4,.54,11.85,11.85,0,0,0,4.08-.72,7.68,7.68,0,0,0,3.3-2.28,6.19,6.19,0,0,0,1.32-4.14,5.77,5.77,0,0,0-1.17-3.66,9.92,9.92,0,0,0-3.06-2.55A31.16,31.16,0,0,0,4759,427a43.25,43.25,0,0,1-4.17-1.68,20.6,20.6,0,0,1-3.84-2.31,10.75,10.75,0,0,1-2.88-3.33,9.68,9.68,0,0,1-1.11-4.8,10.74,10.74,0,0,1,1.65-6,11.49,11.49,0,0,1,4.53-4,15.44,15.44,0,0,1,6.6-1.59,24.49,24.49,0,0,1,7.41,1,28.54,28.54,0,0,1,5.67,2.46Z"/><path class="cls-1" d="M4101,475.49h5.82v43.38H4101Z"/><path class="cls-1" d="M4156.85,520.25l-33.54-34,1.68.42.12,32.22h-5.82v-44.7h.3l33.12,34.14-1.32-.3-.12-32.52h5.82v44.76Z"/><path class="cls-1" d="M4185.23,475.49h28.86v5.58h-11.64v37.8h-5.82v-37.8h-11.4Z"/><path class="cls-1" d="M4257.65,475.49v43.38h-5.82v-19h-22.68v19h-5.82V475.49h5.82v18.78h22.68V475.49Z"/><path class="cls-1" d="M4270.13,475.49h28.2v5.58H4276v13.2h20v5.64h-20v13.38h23.22v5.58h-29Z"/><path class="cls-1" d="M4339.79,475.49a18.81,18.81,0,0,1,8.1,1.59,11.85,11.85,0,0,1,5.19,4.59,13.68,13.68,0,0,1,1.83,7.26,16.87,16.87,0,0,1-.78,5.07,12.77,12.77,0,0,1-2.49,4.5,12.35,12.35,0,0,1-4.47,3.24,16.46,16.46,0,0,1-6.72,1.23H4334v15.9h-5.82V475.49Zm.6,21.78a9.81,9.81,0,0,0,4.26-.81,6.87,6.87,0,0,0,2.64-2.13,9,9,0,0,0,1.38-2.7,8.89,8.89,0,0,0,.42-2.58,9.55,9.55,0,0,0-.42-2.73,7.1,7.1,0,0,0-1.41-2.58,7.52,7.52,0,0,0-2.58-1.92,9.18,9.18,0,0,0-3.93-.75H4334v16.2Z"/><path class="cls-1" d="M4361.21,497.21a21.54,21.54,0,0,1,1.71-8.52,22.69,22.69,0,0,1,11.82-11.94,21.95,21.95,0,0,1,17.13,0,22.91,22.91,0,0,1,11.94,11.94,22,22,0,0,1,0,17.16,22.39,22.39,0,0,1-11.88,11.79,21.69,21.69,0,0,1-8.58,1.71,21.9,21.9,0,0,1-22.14-22.14Zm6,0a16.69,16.69,0,0,0,1.23,6.45,16.26,16.26,0,0,0,3.48,5.25,16.7,16.7,0,0,0,5.16,3.57,16.18,16.18,0,0,0,12.66,0,16.22,16.22,0,0,0,5.1-3.54,16.74,16.74,0,0,0,3.45-5.25,16.41,16.41,0,0,0,1.26-6.42,16.6,16.6,0,0,0-1.26-6.48,17.49,17.49,0,0,0-3.45-5.31,16,16,0,0,0-17.88-3.57,16.11,16.11,0,0,0-8.55,8.91A17.2,17.2,0,0,0,4367.21,497.21Z"/><path class="cls-1" d="M4412.63,497.21a21.54,21.54,0,0,1,1.71-8.52,22.69,22.69,0,0,1,11.82-11.94,21.95,21.95,0,0,1,17.13,0,22.91,22.91,0,0,1,11.94,11.94,22,22,0,0,1,0,17.16,22.39,22.39,0,0,1-11.88,11.79,21.69,21.69,0,0,1-8.58,1.71,21.9,21.9,0,0,1-22.14-22.14Zm6,0a16.69,16.69,0,0,0,1.23,6.45,16.26,16.26,0,0,0,3.48,5.25,16.7,16.7,0,0,0,5.16,3.57,16.18,16.18,0,0,0,12.66,0,16.22,16.22,0,0,0,5.1-3.54,16.74,16.74,0,0,0,3.45-5.25,16.41,16.41,0,0,0,1.26-6.42,16.6,16.6,0,0,0-1.26-6.48,17.49,17.49,0,0,0-3.45-5.31,16,16,0,0,0-17.88-3.57,16.11,16.11,0,0,0-8.55,8.91A17.2,17.2,0,0,0,4418.63,497.21Z"/><path class="cls-1" d="M4466.75,475.49h5.82v37.8h22v5.58h-27.84Z"/><path class="cls-1" d="M0,1214c1.16-4.16,2-8.42,3.52-12.45,9.92-26.85,29.06-43.25,57.41-46.79,27.44-3.43,50,7,65.42,30,15.59,23.23,16.06,47.85,2.86,72.6-1.2,2.25-2.64,4.37-4,6.53,10,18.6,50.48,59.41,72,73,10.43-3.81,19.88-8.69,29.89-10.68,37.14-7.41,73.36,17.22,80.34,53.75,7.3,38.12-16.42,73.85-54.15,81.61A39.32,39.32,0,0,0,249,1463H230.58a16.9,16.9,0,0,0-2.79-1.18c-39.58-8.95-61.39-40.42-56.15-80.45.35-2.66-1.78-6.76-4-8.49-29.32-22.34-55.3-48-77.19-77.63-2.9-3.92-5.7-4.72-10.31-3.92-33.61,5.84-67-15-77-47.86-1.11-3.65-2.06-7.34-3.09-11Zm240.07,156.79a23,23,0,1,0,22.76,23.1A23.29,23.29,0,0,0,240.07,1370.82ZM69,1246.28a23,23,0,1,0-22.84-23A23.33,23.33,0,0,0,69,1246.28Z"/><path class="cls-1" d="M538,1463c-9.86-4-20.7-6.54-29.42-12.29A68.2,68.2,0,0,1,489,1356.58c20.45-31.82,61.88-41.24,94.51-21.49,1.52.91,3,1.84,6.48,3.93,16-15,32.64-30.11,48.61-45.86,7.25-7.15,13-15.79,19.82-23.44,3.29-3.7,3-6.4.56-10.59-13.79-23.33-14.31-47.34-.64-70.66s34.94-34.75,62-34.23c39,.77,70,36,66.49,75-3.59,39.93-40.68,68.88-79.89,62.12-4.62-.79-7.4,0-10.29,3.94a384.67,384.67,0,0,1-77.2,77.61c-2.28,1.73-4.4,5.83-4.06,8.5,5.15,40.18-16.94,72.07-56.14,80.44a15.67,15.67,0,0,0-2.78,1.18Zm32.25-68.88a23,23,0,1,0-23.12,22.74A23.31,23.31,0,0,0,570.27,1394.13Zm147.48-193.91a23,23,0,1,0,23.15,22.71A23.31,23.31,0,0,0,717.75,1200.22Z"/><path class="cls-1" d="M0,906.65c1-3.67,2-7.35,3.08-11,10-32.83,43.4-53.75,77-47.9,4.59.8,7.41.07,10.32-3.87a366.17,366.17,0,0,1,77.36-77.38c3.9-2.89,4.75-5.65,3.95-10.28-6.52-37.82,19.15-72.6,58.31-79.34,36.14-6.22,71.3,19.71,77.95,57.49,6.39,36.34-18.78,72-55.41,78.75-17.7,3.27-34-.14-49.41-9.12-2.06-1.2-6.12-1.69-7.76-.48a316.53,316.53,0,0,0-69.54,70,6.21,6.21,0,0,0-.53,1.47c16.82,26.46,18.6,53.59.65,79.82-16.32,23.85-40,34-68.7,28.86C28,978.39,9.88,960.1,1.81,931.67,1.19,929.48.6,927.29,0,925.09ZM240.16,768.3a23,23,0,1,0-23.39-22.48A23.33,23.33,0,0,0,240.16,768.3ZM69.81,892.84A23,23,0,1,0,92.2,916.31,23.34,23.34,0,0,0,69.81,892.84Z"/><path class="cls-1" d="M393.6,1301.63c-127.94,0-232.26-104.28-232.19-232.19s104.46-232.13,232.42-232c127.71.19,231.62,104.09,231.8,231.79C625.81,1197.19,521.57,1301.58,393.6,1301.63ZM207.53,1069.51c0,102.28,83.3,185.8,185.56,186,102.65.21,186.41-83.32,186.43-185.93,0-102.32-83.27-185.79-185.58-186C291.29,883.4,207.55,966.91,207.53,1069.51Z"/><path class="cls-1" d="M660.35,872.1a323.45,323.45,0,0,0-70.18-69.92c-11.06,4-20.78,8.81-31,10.84C522,820.36,486,795,479.33,757.56,472.42,719.05,497.44,684,536.84,677c36-6.39,72,19.1,78.13,56,1.29,7.67.78,15.76.21,23.58-.32,4.26.11,6.95,3.8,9.68a366.54,366.54,0,0,1,77.89,77.87c2.73,3.69,5.38,4.41,9.68,3.69a69.16,69.16,0,0,1,80.3,62.39c3.31,40.09-28.88,74.95-69.07,74.8s-72.84-35-68.54-75C650.54,898,656,886.33,660.35,872.1Zm57.81,66.79a23,23,0,1,0-23.32-22.55A23.22,23.22,0,0,0,718.16,938.89ZM547.43,722.24a23,23,0,1,0,22.84,23A23.31,23.31,0,0,0,547.43,722.24Z"/><path class="cls-1" d="M370.55,962.54c0-4.35-.23-8.19,0-12,.87-12.66,10.94-22.38,23-22.35,12.56,0,23.13,10,22.78,23-.22,8.2,2.15,11.56,10.19,14.31C437,969.1,447,974.8,456.3,981c11.47,7.6,13.47,21.75,5.92,32.35-7.21,10.13-20.93,12.56-32.07,5.14-13.15-8.76-26.88-15-43.15-11.93-3.45.65-7.71,1.42-9.81,3.75-3.14,3.5-6.26,8.36-6.41,12.74-.09,3,4.31,7.47,7.73,9,13.3,5.92,27.35,10.22,40.45,16.5,11.87,5.69,24.4,11.5,34,20.18,29.59,26.77,25.77,71-7.46,94.79-7.15,5.12-15.65,8.55-23.9,11.85-3.8,1.51-5.15,3-5.13,7a42.72,42.72,0,0,1-1.49,12.83,22.6,22.6,0,0,1-24.41,15.67c-10.7-1.54-20.48-10.5-19.65-21.2.9-11.55-4.35-14.77-13.79-19-12.34-5.54-23.87-13.74-34.28-22.53-11.49-9.7-11.51-24.31-2.07-34,9.21-9.42,23.69-9,34.21,1.4,12,11.79,26.44,18,42.93,17,7.66-.5,15.93-3.9,22.35-8.29,9.2-6.3,8.72-16.32-.08-23.19a64.84,64.84,0,0,0-14.6-8.27c-14.37-6.07-28.87-11.82-43.41-17.45-23.63-9.15-37.18-26-38-51.49-.84-26.64,12.59-45,35.82-56.88C363.17,965.26,366.59,964.15,370.55,962.54Z"/><path class="cls-1" d="M1731.48,688.76c18.07,9,23.17,20,18.66,40.68-5.22,23.94-15.75,45.82-27.07,67.28-9.23,17.51-19.23,34.62-28.94,51.88-5.4,9.59-4.21,16.53,4.88,22.21,73.39,45.89,119.55,113.62,153,191.32,18.09,42.09,30.58,85.86,32.84,131.9,4.56,93.13-35.1,163-113.46,211.68-40.94,25.41-86.3,38.17-134,42.74-56.26,5.39-111.4,0-164.44-20.37-64.34-24.77-114.22-65.79-142.45-130.12-17.73-40.4-21.69-82.87-15-126q22.05-143,120.45-249.69a285.41,285.41,0,0,1,58.23-48.23c13.14-8.25,14.32-14.08,6-27.35-19.11-30.41-37.92-61-50.55-94.84a132.31,132.31,0,0,1-5.36-18.51c-4.93-22.88.68-34.57,21-44.6H1492c10.43,1.8,20.93,3.24,31.26,5.48,17.41,3.76,34.58,8.72,52.08,11.9,22.26,4,44.45,1,66.42-3.37,23-4.6,46-9.33,68.94-14Zm-11.09,33.59-2-2.32c-13.61,2.26-27.58,3.25-40.77,7C1626,741.71,1575,743.88,1523.25,727c-15.21-5-32-5.22-48-7.63l-1.74,2.32c2.49,7.89,4.47,16,7.54,23.62,12.42,31,29.84,59.21,47.71,87.19,6.69,10.48,9.76,21.62,7.75,33.93-.67,4.08-2.08,8-3.33,12.73h8.49q48,0,96,0c8.74,0,14.37,3.87,16.6,11,3.51,11.16-4.17,20.49-17.28,20.52-39.18.11-78.4,1.09-117.51-.41-18.29-.71-31.32,5.45-44.09,17.38-60.65,56.66-98.71,126.37-120.22,205.72-9.68,35.69-14.25,72-8.12,108.89,10.39,62.38,45.24,107.76,99.2,139,42.52,24.66,89.11,35.13,137.81,37,59.79,2.24,117.42-6.85,169.47-38,73.19-43.74,106.57-108.72,98.85-194-4.37-48.22-19.67-93.42-41-136.52-30.81-62.27-71-116.67-131.52-153.89-6.75-4.15-11.75-11.88-16.2-18.82-3.06-4.79-3.77-11.08-5.66-17.11h-8c-27.27,0-54.55.07-81.82,0-11.77,0-18.94-8.47-16.73-19.23,1.57-7.66,7.67-12.21,17.11-12.23q47.22-.12,94.46,0c4,0,6.91-.59,9-4.64,11.62-22.41,23.93-44.47,35.13-67.08C1712.49,745.77,1716,733.85,1720.39,722.35Z"/><path class="cls-1" d="M1615.06,1292.75v36.88c0,2.73.08,5.46,0,8.18-.45,10.79-6.81,17.55-16.26,17.39-9.07-.16-15.41-6.89-15.62-17.25-.25-11.9-.07-23.8-.07-35.7v-9.51c-5,0-9.61.14-14.18,0-35.38-1.22-64.82-31.25-65.26-66.48-.13-10.26,5.71-17.35,14.78-18s16,6.29,16.73,16.94c1.53,21.15,16.7,35.74,37.95,36q26,.35,52.06,0c21.79-.32,38.09-16.73,37.83-37.64-.27-20.6-16.63-36.38-38.11-36.53-17.6-.12-35.21.15-52.81-.08-35.13-.45-64.78-26.88-68.14-60.49-3.63-36.23,18.73-67.78,54-75.39,7.89-1.7,16.16-1.67,25.2-2.52,0-11.48,0-23.06,0-34.64,0-3.47-.15-7,.07-10.41.63-9.87,6.87-16.24,15.8-16.3s15.54,6.25,16,16.06c.41,9.4.13,18.84.14,28.26,0,5.64,0,11.29,0,16.76,10.08,1.21,19.56,1.43,28.57,3.62,29.32,7.14,50.76,34.85,50.88,64.68,0,10-5.6,16.68-14.59,17.19-9.42.54-16.07-5.66-16.9-15.77-1.9-23.09-16.37-36.67-39.31-36.77q-24.92-.11-49.83,0c-22.14.13-38.54,15.67-38.73,36.55s15.92,37,37.95,37.52c18.34.41,36.7-.26,55,.3,26.24.8,46.07,13.24,58.31,36.19,12.38,23.23,11.38,46.94-2.74,69.25-12.64,20-31.38,30.39-55.07,31.62C1624.48,1292.93,1620.31,1292.75,1615.06,1292.75Z"/><path class="cls-1" d="M2606,729.93c0-10.22-.13-20.22,0-30.21.18-11.12,7.29-18.79,16.85-18.54,9.26.25,15.95,7.63,16.17,18.29.21,10,0,20.06,0,30.87h99.41c0-9.49-.08-19.06,0-28.63.13-12.74,6.82-20.73,17-20.51,9.92.21,16,7.75,16.13,20.17.1,8.74.08,17.48.15,26.23a15.5,15.5,0,0,0,.7,2.68h98.83c0-9.85-.7-19.8.28-29.59.53-5.36,2.54-12.11,6.35-15.19s11.77-4.43,15.72-2.35c4.79,2.52,9.46,9.09,10.3,14.5,1.6,10.41.47,21.24.47,32.67h99.81c0-9.92-.1-19.84,0-29.75.15-11.68,6.3-19.05,15.93-19.37,9.9-.32,16.93,7.47,17.15,19.38.19,9.69,0,19.38,0,29.81h99.4c0-9.95-.09-19.87,0-29.78.14-11.86,7.12-19.73,17-19.42,9.58.3,15.92,7.85,16.08,19.33.12,9.07.07,18.14.12,27.21a25.42,25.42,0,0,0,.81,3.39h14.71c21.06,0,42.12,0,63.17,0,24.66.07,37.52,13,37.53,38q0,252.12,0,504.25c0,28.8,1.43,57.83-1.56,86.36-7.13,68.13-63.4,117.41-132.19,117.72-65.11.29-130.22.06-195.33.06H2530.48c-28.53,0-40.85-12.29-40.85-40.76q0-332.76-.29-665.53c0-22.1,12.28-41.78,40.6-40.35,24.23,1.23,48.57.17,72.86.09C2603.4,730.94,2604,730.58,2606,729.93Zm414.86,624.5c-6.71,2.34-12.95,6.19-19.33,6.45-20.38.82-40.81.4-61.22.26-12.84-.08-19.08-6.27-19.18-19.13q-.24-30.6,0-61.22c.11-12.79,6.35-18.83,19.34-18.91q30.12-.2,60.26,0c14.12.07,19.67,5.79,19.76,20.27s0,29.14,0,43.71c13.77-62.31,51.67-100.22,114.19-113.69-15.27-.37-30.4-.22-45.53-.41-12.52-.16-18.46-6.06-18.56-18.51-.16-20.41-.13-40.82,0-61.23.08-13.5,6.09-19.49,19.66-19.58q29.64-.2,59.29,0c14.59.07,20.32,6,20.37,20.89.07,18.47.58,37-.25,55.39-.35,7.71-3.65,15.29-5.76,23.5,32.79,2.57,62.91,17.21,88.5,44V897.57h-729V1443.5H3064.9C3038,1417.9,3023.56,1388,3020.83,1354.43ZM2771.56,764.26c0,11.91.31,22.55-.08,33.15-.39,10.44-7.93,17-17.79,16.13-9.09-.76-14.88-7.45-15.15-18.15-.25-10.21-.05-20.43-.05-30.35h-99.41c0,10.49.12,20.19,0,29.88-.19,11.59-6.58,18.71-16.51,18.73s-16.37-7.1-16.54-18.64c-.14-10,0-19.89,0-30.21h-82.53v98.06h729.12V765.07h-82.67c0,10.51.12,20.21,0,29.9-.17,11.6-6.53,18.68-16.5,18.68S3137,806.5,3136.82,795c-.16-9.94,0-19.89,0-30.11h-98.2c-.54.86-.85,1.11-.85,1.38-.14,9.38-.15,18.77-.37,28.15-.28,12.2-6.81,19.46-17.1,19.23-9.87-.23-15.85-7.23-16-19.08-.13-9.92,0-19.84,0-29.5h-99.65v14.33c0,4.86.1,9.72,0,14.58-.35,12.57-6.4,19.67-16.61,19.67s-16.36-7.09-16.61-19.65c-.19-9.59,0-19.2,0-29.17-2.78-.25-4.33-.51-5.89-.51C2834.65,764.26,2803.89,764.26,2771.56,764.26ZM3253,1344.52c-.07-54.49-45.33-99.62-99.77-99.49s-99.65,45.32-99.5,99.75,45.3,99.61,99.76,99.51S3253.09,1399,3253,1344.52Zm-148.92-166.61H3136v-31.82h-31.86Zm-117.35,149.67v-31.94h-31.8v31.94Z"/><path class="cls-1" d="M2671.48,1211.79c-10.36,0-20.72.18-31.07-.06-11.38-.26-17.57-5.92-17.79-17.36q-.61-32,0-64c.2-11.71,6.67-17.75,18.44-17.86q31.06-.32,62.13,0c12.29.11,18.72,6.21,18.92,18.5q.49,31,0,62.11c-.19,12.86-6.42,18.46-19.56,18.74h-31.06Zm16.9-33.64v-31.87h-32v31.87Z"/><path class="cls-1" d="M2671.84,1361.18c-10,0-20.07.11-30.1,0-12.62-.17-18.95-5.76-19.16-18.07q-.55-31.53,0-63.08c.21-12.39,6.45-18,19.07-18.12q30.57-.2,61.15,0c13,.08,19.14,6,19.32,19q.41,30.57,0,61.14c-.17,13-6.39,19-19.21,19.15C2692.55,1361.29,2682.19,1361.18,2671.84,1361.18Zm16.36-33.56v-32.15h-31.85v32.15Z"/><path class="cls-1" d="M2672.81,963c10,0,20.07-.18,30.09.05,12.37.28,19,6.28,19.16,18.34q.54,31.53,0,63.08c-.2,11.83-6.38,17.85-18.28,18q-31.55.46-63.1,0c-11.9-.17-17.91-6.15-18.11-18.12q-.51-31.53,0-63.08c.21-12.11,6.7-18,19.16-18.24C2652.1,962.85,2662.46,963,2672.81,963Zm15.51,65.84V997h-31.93v31.82Z"/><path class="cls-1" d="M2871.24,1013.22c0,10.35.25,20.71-.06,31-.35,12.06-6,18-17.93,18.24q-31.53.48-63.08,0c-12.26-.18-18.31-6.45-18.45-18.89q-.37-30.56,0-61.13c.14-12.86,6.38-19.25,19.09-19.41,20.7-.25,41.42-.28,62.12,0,11.79.17,17.86,6.32,18.24,18.09C2871.5,991.86,2871.23,1002.54,2871.24,1013.22Zm-65.87,15.54h31.82V996.85h-31.82Z"/><path class="cls-1" d="M3020.46,1013.58c0,10.35.19,20.71,0,31.05-.26,11.49-5.85,17.64-17.24,17.83q-32.52.55-65,0c-10.72-.19-16.83-6.53-17-17.21-.3-21.35-.27-42.7,0-64.05.12-11.08,6.41-17.81,17.39-18q32.5-.58,65,0c10.62.22,16.56,6.76,16.82,17.38C3020.66,991.57,3020.45,1002.58,3020.46,1013.58Zm-65.95,15h32.18V997h-32.18Z"/><path class="cls-1" d="M3020.46,1162.16c0,10.67.21,21.35-.05,32-.27,11.38-6.13,17.39-17.48,17.52q-32,.36-64.08,0c-11.16-.12-17.55-6.37-17.7-17.46q-.41-32,0-64.06c.14-11,6.62-17.56,17.64-17.7q32-.4,64.07,0c11.12.14,17.27,6.5,17.54,17.64C3020.66,1140.8,3020.46,1151.48,3020.46,1162.16ZM2955,1146v32.17h31.72V1146Z"/><path class="cls-1" d="M2820.86,1211.78c-10,0-20.07.14-30.09,0-12.43-.2-18.85-6.07-19-18.24q-.45-31.53,0-63.08c.19-11.59,6.78-17.85,18.43-18q31.54-.33,63.1,0c11.28.13,17.63,6.14,17.81,17.39q.55,32.49,0,65c-.21,10.89-6.35,16.55-17.21,16.83S2831.86,1211.77,2820.86,1211.78Zm-15.51-66V1178h31.79v-32.17Z"/><path class="cls-1" d="M3070.54,1012.27c0-10-.11-20.06,0-30.09.17-12.37,6.1-18.88,18.24-19.06q31.54-.47,63.1,0c11.69.19,17.83,6.7,17.94,18.4q.27,31.53,0,63.08c-.11,11.33-6,17.67-17.28,17.86q-32.51.54-65,0c-11.23-.22-16.61-6.57-17-18.13,0-.33,0-.65,0-1Q3070.53,1027.79,3070.54,1012.27Zm33.53,16.31h32.2V996.82h-32.2Z"/><path class="cls-1" d="M2871.25,1311.55c0,10.35.23,20.71-.06,31.06-.34,12.51-6.29,18.43-18.65,18.52q-31,.25-62.12,0c-12.22-.1-18.53-6.27-18.69-18.65q-.41-31.07,0-62.12c.17-12.34,6.49-18.38,18.82-18.47q31.07-.24,62.13,0c12.36.1,18.19,6,18.52,18.61C2871.47,1290.84,2871.25,1301.2,2871.25,1311.55Zm-65.68-16.1v31.82h31.9v-31.82Z"/><path class="cls-1" d="M3136.79,1328.09c0-11.15-.14-21.12,0-31.08.19-11.27,7-18.71,16.66-18.63s16.27,7.46,16.38,18.87q.21,22.3,0,44.59c-.12,13-6.14,19.12-18.85,19.31-10,.15-20,.23-30.05,0s-17-6.86-17.23-16c-.28-9.47,6.77-16.54,17.23-17C3125.78,1327.91,3130.6,1328.09,3136.79,1328.09Z"/><path class="cls-1" d="M4050.24,1484c-6.49-1.55-13-2.87-19.45-4.71-49-14.1-83.34-59.07-83.61-110q-.41-78.13,0-156.28c.27-74.53,53.44-138.35,126.47-152.85,39.18-7.78,78.19-16.4,118.38-24.87,0-10.84.19-21.76-.17-32.66-.07-2-2.18-4.15-3.7-5.93-23.43-27.48-34.95-59.24-34.79-95.36.14-33-.05-66.06,0-99.09.22-80.42,62.63-143.06,143-143.24,75.46-.17,150.91,0,226.37,0,13.46,0,18.09,4.44,17.24,18-4,64.06-36.29,109.75-92.15,139.4-8.16,4.33-11.45,8.53-11.11,18,.86,23.33.44,46.71.24,70.07-.28,33.71-11.14,63.73-32.84,89.53-4.31,5.12-6.27,10.05-5.9,16.61.45,8,.11,16,.11,24.59,27.22,5.72,54,11.09,80.6,17,21.17,4.7,42.88,8.2,63.16,15.52,60.78,21.93,100.86,80.44,101.13,145.2q.31,77.34,0,154.67c-.21,58-41.38,105.85-98.54,114.94a34.52,34.52,0,0,0-4.55,1.4H4393.47c-18.58-4.44-36.42-10.45-51.35-23.11-1.09-.93-4.16-.76-5.57.1-12.28,7.52-24.39,15.31-36.55,23h-9.66c-8.73-5.61-17.92-10.63-26.07-17-9-7-15.45-6.67-25.59-.14-12.45,8-27.74,11.62-41.81,17.13Zm90.23-206.65c0,25.24.15,50.49-.11,75.73-.06,5.35,1.29,8.64,6.1,11.58q71.49,43.55,142.61,87.69c4.57,2.83,7.69,2.79,12.23,0q71.47-44.32,143.27-88.14c3.89-2.38,5.41-4.9,5.4-9.52q-.26-76.92,0-153.86c0-4.67-1.62-7.17-5.44-9.51q-72.07-44.12-143.95-88.58c-4-2.48-6.87-2.46-10.86,0q-71.83,44.5-143.94,88.59c-4.37,2.66-5.45,5.58-5.41,10.31C4140.58,1226.84,4140.47,1252.08,4140.47,1277.32Zm57.35-217c-43.41,9.24-86.38,17.29-128.78,27.68-54.3,13.31-95.24,65.17-95.94,120.48-.69,54-.92,107.93.12,161.87.69,35.69,18.56,62,50.3,78.48,29,15,60.28,7.55,91.17,9.55,0-25.93.11-50.6-.22-75.26,0-1.87-2.84-4.9-4.81-5.35-15.69-3.52-31.48-6.61-47.27-9.71-7.21-1.42-12-5.37-12-12.88-.17-43-.09-85.9-.08-128.86a10.92,10.92,0,0,1,.39-3.18c1.91-6,5.93-9.67,12.32-9.71,6.78-.05,11.05,3.79,12.66,10.22.64,2.55.36,5.34.36,8,0,35.17-.06,70.34.14,105.5,0,2.68,1.43,7.3,3,7.69,11.52,2.83,23.26,4.81,35.53,7.17v-9.88c0-49.94.13-99.87-.12-149.8,0-8.48,2.88-13.94,10.19-18.35,30.54-18.42,60.83-37.27,91.2-56,2.68-1.65,5.27-3.41,8.05-5.22C4215.21,1095.13,4206.71,1078.12,4197.82,1060.29Zm168.57,52.42c2.7,1.78,5.09,3.45,7.57,5,30.37,18.71,60.66,37.57,91.2,56,7.54,4.54,10.68,10.1,10.63,18.94-.29,50.2-.14,100.4-.14,150.6v9l38.67-7.79v-9.17q0-53.55,0-107.11c0-9,4.91-14.6,12.43-14.85,7.81-.26,13.26,5.57,13.27,14.83q.13,62.41,0,124.83c0,9.07-3.36,13.13-12.36,15-15.21,3.23-30.42,6.5-45.73,9.14-5.11.89-6.5,2.76-6.44,7.76.25,22.54.09,45.1.14,67.65a46.22,46.22,0,0,0,.7,5.6c16.55,0,32.63.07,48.72,0,52.83-.28,92.11-39.34,92.31-92.11q.29-76.92,0-153.82c-.27-58.6-41-110.75-97.87-124.74-27.31-6.72-55-11.89-82.54-17.73-14.84-3.15-29.69-6.24-44.52-9.36Zm46.33-286.19c-62.95,0-123.08-.06-183.2.25-2.52,0-5.9,3.07-7.37,5.59-12.62,21.52-24.63,43.39-37.39,64.81-4.38,7.34-5.66,14.27-4.47,22.78,7.6,54.47,53.6,97.16,108.2,99.77,56.73,2.72,109.12-34.26,118.7-89.06C4413.08,897,4411.11,861.9,4412.72,826.52Zm102.12-141.29c-3.32-.29-4.62-.5-5.92-.5-72.75,0-145.51-.45-218.26.21-50.87.47-98.11,38.58-107.71,88.93-4.56,23.94-2.75,49.1-3.76,73.71-.07,1.54.43,3.11.89,6.09,8.52-14.91,16.54-28.24,23.82-42,4.32-8.15,10.22-11.17,19.39-11.12,60.14.29,120.28-.26,180.41.44,14.71.17,27.19-3.67,39.37-11,17.32-10.47,32.65-23,44.67-39.58-1-.63-1.41-1.11-1.82-1.11-15-.07-30.07-.07-45.1-.13-10.77,0-16.79-4.8-16.67-13.07s6-12.68,17-12.7c18.79,0,37.59.1,56.38-.15,2.43,0,6.44-1.39,7-3C4508.32,708.91,4511.36,697.38,4514.84,685.23ZM4246.1,1099.36c12.11-7.43,23.79-13.61,34.33-21.34s19.47-7.28,29.84.18c10.6,7.63,22.17,13.91,33.89,21.13,8.56-17.1,16.55-33.72,25.17-50,4.43-8.36,3.16-16.68,2.65-26.2-24.24,15.12-49.67,22.52-77.12,22.51s-52.71-7.72-77.5-23.07c.57,8.45-.75,16,1.82,21.89C4227.23,1062.82,4236.75,1080.55,4246.1,1099.36Zm-19.25,344.83-85.78-52.78v67C4170.23,1456.48,4200.24,1464.23,4226.85,1444.19Zm136.57.12c27.33,19.8,57.28,12.41,85.81,13.83v-66.66l-65.77,40.43C4377.1,1435.82,4370.76,1439.77,4363.42,1444.31Z"/><path class="cls-1" d="M4335.58,1347.51c15.75-10,30.83-19.23,45.55-29,2.27-1.52,4-5.47,4.09-8.36.42-13.95.15-27.92.2-41.88,0-10.25,4.68-16.11,12.7-16.23s13,5.83,13.05,15.88c.07,17.19-.18,34.38.11,51.56.13,7.52-2.67,12.59-9.07,16.55q-28.77,17.76-57.09,36.22a17.29,17.29,0,0,0-6.55,8.25c-7.09,21.1-26,34.3-47.29,32.48-20.59-1.75-37.41-17.59-40.8-38.44-3.28-20.09,8.71-40.75,28.1-48.44,19.83-7.86,41-1.17,53.87,17ZM4275.89,1368a19.28,19.28,0,1,0,19.43-19.32A19.49,19.49,0,0,0,4275.89,1368Z"/><path class="cls-1" d="M4254.83,1207.88c-16,10.15-31.5,19.76-46.68,29.81-1.87,1.24-3,4.8-3.08,7.31-.29,14.23-.08,28.46-.16,42.69-.05,10-5.16,16-13.2,15.74-7.74-.2-12.5-6-12.54-15.57-.07-17.45.16-34.91-.11-52.36-.11-7.24,2.73-12.07,8.82-15.85q29.07-18,57.76-36.67a16,16,0,0,0,6-7.69c7-21.3,25.58-34.42,47-32.82,20.88,1.56,38,17.75,41.22,38.9,3,19.84-8.84,40.18-27.84,47.87-20,8.12-41.49,1.31-54.44-17.27C4256.88,1210.88,4256.14,1209.79,4254.83,1207.88Zm21.06-20.52a19.28,19.28,0,1,0,19.58-19.16A19.5,19.5,0,0,0,4275.89,1187.36Z"/><path class="cls-1" d="M4311,981.13c-9.36.25-15.42-4.5-15.73-12.32-.3-7.52,5-12.64,13.94-13.4,21.9-1.86,35.56-15.64,37.54-37.88.78-8.68,6.25-14.1,13.73-13.58s12.13,6.37,12,15.26C4372,951.6,4343.5,980.26,4311,981.13Z"/><path class="cls-1" d="M4308.05,884.91c0,6.18.19,12.36-.07,18.53-.34,8.06-5.93,13.48-13.2,13.25-7-.22-12.25-5.47-12.41-13.22q-.37-18.91,0-37.86c.17-8.1,5.86-13.48,13.18-13.25,7,.23,11.94,5.48,12.48,13.22,0,.54,0,1.07,0,1.61Q4308.06,876.06,4308.05,884.91Z"/><path class="cls-1" d="M4398.23,736.25a12.83,12.83,0,1,1-12.85-12.8A13,13,0,0,1,4398.23,736.25Z"/></g></g></svg>